<?xml version="1.0" encoding="UTF-8"?> <svg xmlns="http://www.w3.org/2000/svg" xmlns:xlink="http://www.w3.org/1999/xlink" version="1.1" id="Layer_1" x="0px" y="0px" width="1750px" height="492.188px" viewBox="0 0 1750 492.188" xml:space="preserve"> <g> <defs> <rect id="SVGID_1_" x="-85" y="-23.906" width="1920" height="540"></rect> </defs> <clipPath id="SVGID_2_"> <use xlink:href="#SVGID_1_" overflow="visible"></use> </clipPath> <path clip-path="url(#SVGID_2_)" fill="#1D184B" d="M45.369,198.859c-10.161,1.443-17.23,10.848-15.789,21.009 c1.442,10.162,10.848,17.231,21.009,15.789c10.162-1.441,28.303-22.784,28.303-22.784S55.53,197.418,45.369,198.859 M130.164,167.264c-4.545,0.454-7.863,4.507-7.409,9.052c0.455,4.546,9.613,13.008,9.613,13.008s7.303-10.106,6.849-14.651 C138.763,170.127,134.71,166.81,130.164,167.264 M367.935,139.163c-7.441-11.315-15.965-21.97-25.557-31.584 c-9.615-9.59-20.177-18.223-31.447-25.761c-11.333-7.443-23.431-13.754-36.019-18.845c-12.583-5.121-25.748-8.739-39.074-11.162 c-13.333-2.448-26.911-3.315-40.391-2.959c-13.491,0.327-26.897,2.186-39.955,5.252c-13.074,3.033-25.74,7.584-37.816,13.219 C105.601,72.97,94.127,79.785,83.47,87.631c-21.303,15.735-39.028,35.8-52.264,58.093C17.97,168.05,9.337,192.81,5.688,218.015 c-1.89,12.592-2.52,25.317-1.912,37.927c0.577,12.619,2.53,25.089,5.365,37.28c5.863,24.352,16.254,47.424,30.489,67.717 c7.065,10.186,15.207,19.574,24.041,28.21c8.832,8.645,18.513,16.409,28.838,23.177c10.275,6.845,21.212,12.707,32.627,17.443 c11.41,4.735,23.238,8.546,35.378,11.051c24.25,5.133,49.545,5.636,74.242,1.477c12.324-2.171,24.552-5.287,36.385-9.696 c11.834-4.386,23.288-9.955,34.128-16.631c10.821-6.693,21.168-14.319,30.63-23.028c9.48-8.682,18.14-18.348,25.823-28.792 c15.313-20.907,26.781-45.075,32.935-70.819c6.035-25.737,7.136-52.904,2.615-79.361 C392.758,187.527,382.742,161.865,367.935,139.163 M142.157,374.789c-19.987-2.835-33.45-8.884-42.447-27.192 c-1.677-3.361-2.475-6.904-3.855-10.896c-1.774-5.054-2.98-12.201-2.895-17.67c0.094-5.434,0.067-10.481,1.16-15.135 c5.304-22.681,23.477-36.494,25.58-61.417c0.634-7.65-0.692-17.606-1.573-25.29c0.631-0.157,7.987-1.191,13.127-2.117 l14.824,160.035C144.173,374.984,142.719,374.87,142.157,374.789 M154.098,375.75l-15.025-161.945 c5.187-1.118,10.824-1.573,15.922-2.67l15.253,164.876C168.213,376.112,158.915,375.982,154.098,375.75 M235.53,204.722 c-0.346,0.942-1.52,0.787-2.659,1.102c-10.889,3.013-18.454-1.044-21.742-2.706c-2.752-1.387-5.711-2.07-9.044-2.885 c-1.832-0.445-4.158-1.743-6.682-0.973c-1.716,0.506-2.972,1.639-4.239,2.56c-2.503,1.819-10.936,7.44-11.979,9.076 c-0.677,1.063-0.524,1.976-0.439,3.197c0.096,1.386,1.387,15.282,1.897,20.764l1.541,16.588l1.772,19.068 c0.631,6.788,1.261,13.576,1.892,20.363c0.634,6.826,1.269,13.651,1.903,20.478c0.601,6.468,1.202,12.938,1.803,19.407 c0.532,5.718,1.063,11.436,1.594,17.154l1.274,13.72l0.846,9.099l0.307,3.298c-3.566,0.622-10.819,1.484-16.003,1.555 c-0.017-0.18-0.033-0.359-0.051-0.539c-0.167-1.794-0.333-3.589-0.5-5.383c-0.32-3.439-0.641-6.878-0.961-10.317 c-0.44-4.738-0.881-9.474-1.322-14.211l-1.588-17.066c-0.586-6.292-1.171-12.585-1.757-18.878c-0.609-6.549-1.219-13.1-1.828-19.65 c-0.602-6.462-1.203-12.923-1.804-19.384c-0.561-6.025-1.122-12.051-1.682-18.076c-0.488-5.242-0.976-10.485-1.464-15.728 c-0.375-4.036-0.764-8.07-1.162-12.103c-0.185-1.864-1.454-8.924-0.751-10.566c2.319-5.418,27.112-19.216,32.121-22.052 c-2.862-6.005-1.91-14.502-1.046-21.593c0.561-4.603,4.091-8.023,5.502-7.86c2.508,0.289,3.865,3.985,4.492,7.635 c1.909,11.118-4.629,15.801-5.513,20.026l4.962-1.848c4.424-1.71,11.534-3.199,12.981-7.491c0.958-2.861-0.722-6.94-0.259-10.386 c0.81-5.923,1.958-11.357,3.643-16.471c0.785-2.383,2.327-4.927,4.467-6.313c0.881-0.57,2.119-1.001,3.067-0.338 c0.801,0.559,1.059,1.579,1.259,2.474c0.261,1.18,0.492,2.351,0.597,3.558c0.204,2.321,0.058,4.67-0.431,6.948 c-0.8,3.724-2.871,6.736-4.391,10.168c-1.147,2.586-2.174,5.286-2.971,8.002c-0.349,1.193-0.7,2.384-1.048,3.578 c6.52-2.319,13.915-2.428,19.851-5.209c-1.04-10.437-0.185-19.832,4.502-25.454c0.93-1.113,3.947-4.196,6.225-3.701 c2.821,0.616,3.679,5.899,3.24,9.688c-0.596,5.048-1.155,8.951-3.838,12.865c-1.339,1.951-4.126,4.016-5.914,5.96 c4.101-1.037,10.014-2.543,14.116-3.6c2.566-0.712,5.183-1.236,6.433-3.098c0.722-1.042,0.671-2.537,1.108-3.869 c0.464-1.505,2.643-4.907,3.791-5.835c7.462-6.042,14.959-5.111,6.314,8.465c-1.744,2.736-5.058,3.974-8.738,5.004 c-0.608,0.076-1.2,0.151-1.809,0.226c-3.928,1.064-10.067,3.666-12.451,6.134c1.289,0.324,1.783,1.196,2.617,1.643 c0.91,0.465,2.027,0.511,3.298,0.588c3.871,0.187,7.81-2.569,11-3.455c4.99-1.813,19.699,3.934,19.615,8.435 c-0.108,5.729-13.449,3.878-18.631,2.66c-4.282-0.988-8.544-1.918-12.392-3.334c-4.282-1.581-7.619-4.048-12.658-4.833 c-3.315-0.529-6.965,0.385-9.737,1.187c-2.867,0.828-5.752,1.387-8.423,2.259c1.457,0.278,2.871,0.499,4.323,0.718l6.831,1.195 c9.45,1.996,17.001,3.034,24.203,7.509c1.915,1.188,8.304,4.888,6.302,8.601c-1.758,3.273-10.741,1.075-13.779,0.358 c-7.109-1.659-14.922-3.256-20.443-6.892c-2.563-1.725-5.894-4.113-7.971-6.387c-1.223-1.154-2.426-2.309-3.648-3.464 c-1.575-0.346-5.384,0.809-6.739,1.256c-4.701,1.592-8.418,3.604-12.383,5.65c-1.34,0.677-4.293,1.989-5.11,3.075 c10.892-4.272,21.428,0.384,28.808,3.677c2.093,0.946,4.268,1.698,6.09,2.93C234.639,203.029,235.833,203.705,235.53,204.722 M387.35,287.475c-4.618,23.85-14.131,46.754-27.7,67.058c-13.586,20.293-31.214,37.965-51.682,51.592 c-8.627,5.761-17.752,10.794-27.233,15.068c-7.195-31.766-17.157-55.335-34.8-73.863c-13.322-13.99-2.339-29.327,14.486-24.676 c22.542,6.231,50.168,11.211,57.489,1.498c7.267-9.638,9.581-57.86,9.513-59.31c2.191,0.113,13.517,1.43,14.413-1.031 c0.608-1.684-10.214-72.873-34.271-94.212c0.764,0.677,6.369-2.886,7.124-3.292c3.771-2.033,8.033-3.52,11.48-6.075 c5.275-3.912,11.119-15.882,4.647-21.175c-1.077-0.885-2.439-1.356-3.801-1.659c-4.5-1-7.874,0.137-12.13,1.404 c-0.854,0.254-1.846,0.418-2.572-0.103c-0.888-0.635-0.899-1.917-0.997-3.008c-0.232-2.628-1.404-5.31-3.498-6.986 c-3.548-2.838-8.277-0.047-11.918-3.152c-1.057-0.9-1.857-2.064-2.889-2.991c-2.215-1.987-5.337-2.714-8.311-2.598 c-4.183,0.161-8.105,1.437-11.889,3.146c-1.227,0.556-6.592,2.147-6.438,4.042c-0.172-2.143-0.687-5.575-2.463-6.994 c-0.953-0.764-2.222-0.968-3.308-1.527c-14.133-7.288-28.709-7.965-41.498-4.679c-4.685,1.204-9.863,4.103-14.108,6.541 c-4.237,2.432-5.345,6.037-8.317,9.553c-3.137,3.715-7.175,6.491-11.182,9.179c-3.781,2.534-7.92,4.776-10.119,8.97 c-2.032,3.874-1.865,8.391-1.816,12.637c0.056,4.742,0.51,9.419,1.212,14.11c0.462,3.088,1.014,6.162,1.629,9.221 c0.059,0.294,0.049,0.598,0.073,0.898c-20.24,3.334-40.484,6.668-60.711,10.006c-0.242-2.272-0.486-4.545-0.73-6.818 c-2.003-18.706-4.089-38.126-6.066-56.839c-13.634,2.013-27.182,4.737-40.856,6.722c6.158,24.015,11.854,48.041,15.011,72.663 c2.034,15.848,2.926,32.491-0.907,48.146c-3.817,15.57-10.511,29.753-17.341,43.344c-8.097,16.051-17.079,31.375-18.535,52.231 c-0.037,0.565-0.049,1.572-0.045,2.774c-0.219-0.317-0.446-0.629-0.663-0.947c-13.819-20.198-23.512-43.097-28.416-66.947 c-4.899-23.851-5.006-48.637-0.255-72.496c4.717-23.868,14.33-46.752,27.978-67.004c13.664-20.242,31.35-37.831,51.838-51.36 c20.468-13.556,43.67-23.063,67.838-27.874c24.17-4.807,49.285-4.911,73.461-0.251c24.186,4.626,47.367,14.063,67.898,27.44 c20.565,13.328,38.471,30.62,52.279,50.698c13.834,20.055,23.583,42.832,28.565,66.593 C391.796,238.903,392.002,263.635,387.35,287.475 M153.853,163.171c-4.541,0.498-7.819,4.583-7.321,9.124 c0.498,4.541,9.737,12.914,9.737,12.914s7.206-10.176,6.708-14.717C162.479,165.951,158.394,162.673,153.853,163.171 M748.62,390.692c0.869,0,1.609-0.319,2.22-0.957c0.612-0.638,0.917-1.41,0.917-2.313c0-0.905-0.305-1.676-0.917-2.314 c-0.611-0.639-1.351-0.959-2.22-0.959c-0.868,0-1.609,0.32-2.221,0.959c-0.611,0.638-0.917,1.409-0.917,2.314 c0,0.903,0.306,1.675,0.917,2.313C747.011,390.373,747.752,390.692,748.62,390.692 M738.765,430.636 c-0.602-0.408-1.073-0.824-1.41-1.251c-0.337-0.425-0.638-0.984-0.903-1.675l-12.579-32.55h-2.127 c-1.791,4.61-3.83,9.866-6.117,15.77c-2.288,5.903-4.379,11.221-6.276,15.955c-0.372,0.923-0.754,1.645-1.143,2.168 c-0.391,0.523-0.941,1.024-1.649,1.503c-0.444,0.283-1.011,0.509-1.702,0.677c-0.691,0.168-1.268,0.271-1.728,0.306v1.889h14.21 v-1.889c-1.4-0.07-2.659-0.301-3.776-0.691c-1.117-0.39-1.675-0.939-1.675-1.649c0-0.302,0.043-0.691,0.133-1.17 c0.089-0.478,0.248-1.098,0.48-1.862c0.248-0.779,0.528-1.63,0.838-2.553c0.311-0.921,0.714-2.003,1.212-3.244h13.246l3.125,8.457 c0.071,0.177,0.124,0.382,0.16,0.611c0.036,0.232,0.053,0.426,0.053,0.586c0,0.39-0.457,0.718-1.37,0.984 c-0.913,0.265-2.06,0.442-3.443,0.531v1.889h15.685v-1.889c-0.443-0.018-0.993-0.11-1.648-0.279 C739.705,431.092,739.173,430.884,738.765,430.636 M715.478,418.004l5.634-14.645l5.716,14.645H715.478z M660.617,397.58 c0.496,0.035,1.086,0.142,1.768,0.319c0.683,0.177,1.264,0.381,1.743,0.612c0.567,0.265,0.965,0.635,1.196,1.102 c0.23,0.471,0.346,0.99,0.346,1.557v27.231c0,0.692-0.124,1.255-0.372,1.69c-0.25,0.433-0.639,0.757-1.17,0.97 c-0.302,0.141-0.856,0.248-1.663,0.319c-0.807,0.07-1.422,0.124-1.848,0.159v1.889h15.664v-1.889 c-0.443-0.018-1.051-0.106-1.822-0.266c-0.771-0.159-1.308-0.319-1.609-0.478c-0.603-0.32-1.007-0.692-1.21-1.118 c-0.205-0.426-0.305-0.949-0.305-1.572v-30.046H688.7v30.34c0,0.693-0.125,1.255-0.373,1.691c-0.248,0.433-0.638,0.758-1.17,0.971 c-0.301,0.141-0.856,0.248-1.662,0.319c-0.807,0.07-1.423,0.124-1.849,0.159v1.889h15.664v-1.889 c-0.443-0.018-1.051-0.106-1.821-0.266c-0.772-0.159-1.308-0.319-1.609-0.478c-0.603-0.319-1.006-0.691-1.21-1.116 c-0.205-0.427-0.306-0.95-0.306-1.57v-27.205c0-0.585,0.101-1.126,0.306-1.623c0.204-0.496,0.607-0.85,1.21-1.063 c0.354-0.124,0.89-0.257,1.609-0.399c0.718-0.141,1.324-0.221,1.821-0.239v-1.889h-38.693V397.58z M608.846,398.231 c-2.19-1.692-5.039-2.54-8.549-2.54h-17.233v1.889c0.479,0.035,1.051,0.102,1.715,0.199c0.665,0.098,1.334,0.262,2.008,0.492 c0.656,0.249,1.073,0.621,1.25,1.117c0.178,0.497,0.265,1.055,0.265,1.675v27.232c0,0.691-0.119,1.26-0.358,1.702 c-0.239,0.443-0.625,0.78-1.157,1.011c-0.319,0.141-0.882,0.257-1.689,0.346c-0.806,0.087-1.423,0.15-1.847,0.185v1.889h16.194 v-1.889c-0.674-0.018-1.413-0.08-2.22-0.185c-0.807-0.107-1.37-0.222-1.688-0.346c-0.639-0.248-1.06-0.608-1.264-1.077 c-0.204-0.47-0.306-1.016-0.306-1.636v-11.436h4.229c1.808,0,3.519-0.229,5.132-0.69c1.613-0.461,3.094-1.188,4.441-2.182 c1.365-0.992,2.434-2.247,3.204-3.761c0.772-1.517,1.158-3.259,1.158-5.226C612.131,402.181,611.036,399.925,608.846,398.231 M605.243,408.789c-0.195,0.913-0.594,1.795-1.196,2.646c-0.604,0.887-1.503,1.627-2.7,2.22c-1.197,0.595-2.753,0.891-4.667,0.891 h-2.713v-16.673h3.75c1.506,0,2.766,0.23,3.777,0.69c1.01,0.462,1.825,1.11,2.446,1.942c0.585,0.78,0.997,1.693,1.236,2.739 c0.24,1.047,0.36,2.074,0.36,3.085C605.536,407.057,605.438,407.876,605.243,408.789 M566.125,397.58 c0.513,0.054,1.072,0.102,1.674,0.147c0.603,0.044,1.162,0.136,1.676,0.278c0.496,0.141,0.896,0.336,1.198,0.583 c0.3,0.248,0.451,0.575,0.451,0.982c0,0.495-0.731,1.997-2.193,4.505c-1.462,2.507-3.583,6.003-6.364,10.487 c-1.397-2.517-2.529-4.56-3.396-6.128c-0.867-1.569-1.716-3.143-2.547-4.72c-0.284-0.549-0.584-1.121-0.903-1.715 c-0.318-0.594-0.592-1.12-0.822-1.581c-0.194-0.408-0.346-0.744-0.452-1.009c-0.107-0.266-0.159-0.451-0.159-0.557 c0-0.389,0.372-0.689,1.117-0.901c0.744-0.213,2.02-0.336,3.829-0.371v-1.889h-16.103v1.889c0.478,0.035,1.014,0.124,1.608,0.266 c0.595,0.141,1.103,0.345,1.53,0.611c0.584,0.391,1.103,0.842,1.555,1.357c0.452,0.514,0.972,1.276,1.556,2.287 c0.958,1.702,2.083,3.75,3.377,6.143c1.294,2.394,2.473,4.618,3.538,6.675c0.478,0.922,0.89,1.759,1.236,2.514 c0.346,0.753,0.518,1.27,0.518,1.554v9.175c0,0.674-0.12,1.242-0.359,1.702c-0.239,0.461-0.678,0.824-1.316,1.09 c-0.39,0.16-1.081,0.288-2.075,0.386c-0.993,0.097-1.737,0.164-2.233,0.199v1.889h17.657v-1.889 c-0.585-0.018-1.355-0.128-2.313-0.332c-0.957-0.204-1.622-0.377-1.994-0.519c-0.621-0.283-1.06-0.66-1.317-1.13 c-0.258-0.469-0.385-1.024-0.385-1.662v-7.207c0-1.311,0.106-2.313,0.319-3.004c0.213-0.693,0.646-1.605,1.303-2.74 c1.754-3.085,3.217-5.628,4.387-7.632c1.171-2.003,2.448-3.98,3.83-5.93c0.708-0.975,1.188-1.577,1.437-1.809 c0.247-0.229,0.718-0.558,1.409-0.984c0.283-0.212,0.753-0.43,1.409-0.651s1.134-0.341,1.436-0.359v-1.889h-13.119V397.58z M536.402,426.128c-0.895,1.728-1.751,3.018-2.566,3.869c-0.302,0.319-0.811,0.572-1.53,0.758 c-0.717,0.186-1.414,0.314-2.087,0.386c-0.656,0.07-1.462,0.106-2.42,0.106h-2.313c-1.473,0-2.606-0.049-3.404-0.146 c-0.798-0.097-1.428-0.314-1.888-0.651c-0.462-0.336-0.771-0.831-0.932-1.486c-0.159-0.655-0.239-1.549-0.239-2.682v-11.309h4.255 c1.152,0,2.078,0.105,2.779,0.318c0.7,0.213,1.325,0.665,1.875,1.355c0.337,0.426,0.66,1.114,0.971,2.062 c0.31,0.949,0.501,1.849,0.571,2.699h1.995v-14.786h-1.995c-0.089,0.764-0.27,1.574-0.545,2.434 c-0.275,0.86-0.607,1.547-0.997,2.06c-0.479,0.604-1.033,1.034-1.663,1.291c-0.629,0.257-1.626,0.385-2.991,0.385h-4.255v-14.998 h5.931c0.974,0,1.844,0.018,2.605,0.053c0.763,0.036,1.418,0.089,1.969,0.16c1.063,0.141,2.185,0.97,3.364,2.486 c1.178,1.515,1.946,2.947,2.3,4.295h1.994v-9.096h-29.199v1.889c0.478,0.035,1.121,0.142,1.928,0.319 c0.806,0.177,1.45,0.381,1.928,0.612c0.621,0.283,1.028,0.651,1.223,1.102c0.195,0.453,0.293,0.972,0.293,1.557v27.125 c0,0.656-0.111,1.196-0.332,1.623c-0.223,0.425-0.617,0.77-1.184,1.036c-0.266,0.124-0.842,0.244-1.728,0.359 c-0.888,0.116-1.596,0.191-2.128,0.226v1.889h31.327l0.718-11.116h-1.915C537.869,423.127,537.298,424.398,536.402,426.128 M654.191,424.972c-0.249,0.584-0.576,1.195-0.984,1.834c-0.355,0.568-0.781,1.033-1.277,1.396 c-0.496,0.363-1.072,0.545-1.728,0.545h-6.036v-0.877c1.205-1.33,2.424-2.722,3.656-4.176c1.232-1.453,2.291-2.898,3.179-4.335 c0.868-1.435,1.532-2.947,1.994-4.533c0.46-1.587,0.691-3.302,0.691-5.145c0-1.969-0.413-3.844-1.236-5.626 c-0.825-1.781-1.991-3.364-3.498-4.747c-1.507-1.365-3.328-2.46-5.464-3.284c-2.138-0.824-4.499-1.236-7.088-1.236 c-2.482,0-4.8,0.407-6.954,1.223c-2.153,0.816-3.976,1.897-5.465,3.244c-1.559,1.419-2.757,3.001-3.59,4.747 c-0.834,1.747-1.25,3.64-1.25,5.679c0,1.843,0.243,3.576,0.732,5.198c0.487,1.622,1.147,3.107,1.98,4.454 c0.728,1.188,1.756,2.585,3.086,4.188c1.329,1.605,2.569,3.055,3.723,4.349v0.877h-6.116c-0.71,0-1.295-0.178-1.755-0.531 c-0.462-0.355-0.878-0.824-1.25-1.41c-0.409-0.62-0.732-1.219-0.971-1.795c-0.239-0.575-0.502-1.21-0.785-1.902h-1.835 l1.835,10.319h15.77v-1.809c-0.99-1.4-2.019-2.89-3.088-4.468c-1.069-1.577-1.948-3.101-2.637-4.573 c-0.725-1.49-1.282-3.027-1.67-4.614c-0.389-1.587-0.583-3.355-0.583-5.306c0-1.72,0.159-3.487,0.477-5.304 c0.319-1.818,0.84-3.427,1.566-4.828c0.919-1.808,2.131-3.155,3.634-4.042c1.503-0.886,3.218-1.329,5.146-1.329 s3.634,0.421,5.12,1.262c1.486,0.842,2.724,2.203,3.714,4.083c0.725,1.418,1.242,3.098,1.552,5.039 c0.309,1.94,0.465,3.648,0.465,5.119c0,2.093-0.187,3.864-0.558,5.32c-0.371,1.454-0.927,2.968-1.669,4.546 c-0.654,1.401-1.507,2.881-2.559,4.441c-1.05,1.56-2.115,3.112-3.193,4.654v1.809h15.691l1.835-10.319h-1.835 C654.697,423.766,654.439,424.386,654.191,424.972 M1731.104,395.691v1.889c0.585,0.035,1.44,0.213,2.567,0.532 c1.125,0.319,1.936,0.647,2.432,0.984c0.532,0.389,0.94,1.175,1.224,2.352c0.283,1.179,0.426,2.867,0.426,5.066v17.947 l-21.211-28.77h-10.782v1.889c0.674,0.035,1.556,0.262,2.647,0.678c1.09,0.417,1.954,0.917,2.593,1.503 c0.478,0.443,0.859,1.072,1.143,1.887c0.283,0.817,0.426,1.631,0.426,2.447v18.59c0,2.463-0.116,4.206-0.346,5.225 c-0.231,1.019-0.656,1.777-1.276,2.274c-0.284,0.248-0.994,0.527-2.128,0.837c-1.135,0.31-1.941,0.483-2.42,0.518v1.889h15.477 v-1.889c-0.408-0.018-1.25-0.195-2.527-0.531c-1.276-0.337-2.118-0.7-2.526-1.09c-0.568-0.496-0.988-1.33-1.263-2.5 c-0.275-1.171-0.412-2.847-0.412-5.026v-19.467l22.87,30.875h2.314v-27.631c0-1.931,0.11-3.527,0.332-4.786 c0.221-1.259,0.652-2.111,1.29-2.554c0.443-0.283,1.178-0.558,2.207-0.823c1.028-0.267,1.791-0.408,2.287-0.426v-1.889H1731.104z M1357.292,397.58c0.585,0.035,1.439,0.213,2.565,0.532s1.938,0.647,2.434,0.984c0.532,0.389,0.939,1.175,1.223,2.352 c0.283,1.179,0.425,2.867,0.425,5.066v17.947l-21.21-28.77h-10.781v1.889c0.674,0.035,1.556,0.262,2.646,0.678 c1.09,0.417,1.954,0.917,2.593,1.503c0.479,0.443,0.859,1.072,1.144,1.887c0.283,0.817,0.424,1.631,0.424,2.447v18.59 c0,2.463-0.115,4.206-0.345,5.225c-0.231,1.019-0.656,1.777-1.277,2.274c-0.284,0.248-0.993,0.527-2.127,0.837 s-1.942,0.483-2.419,0.518v1.889h15.476v-1.889c-0.407-0.018-1.25-0.195-2.526-0.531c-1.277-0.337-2.119-0.7-2.527-1.09 c-0.567-0.496-0.988-1.33-1.262-2.5c-0.276-1.171-0.412-2.847-0.412-5.026v-19.467l22.87,30.875h2.313v-27.631 c0-1.931,0.11-3.527,0.332-4.786c0.222-1.259,0.653-2.111,1.29-2.554c0.444-0.283,1.179-0.558,2.207-0.823 c1.029-0.267,1.791-0.408,2.287-0.426v-1.889h-15.343V397.58z M1325.844,426.128c-0.895,1.728-1.751,3.018-2.566,3.869 c-0.302,0.319-0.812,0.572-1.529,0.758c-0.718,0.186-1.414,0.314-2.087,0.386c-0.657,0.07-1.464,0.106-2.421,0.106h-2.314 c-1.471,0-2.605-0.049-3.403-0.146c-0.799-0.097-1.428-0.314-1.889-0.651c-0.461-0.336-0.77-0.831-0.93-1.486 c-0.159-0.655-0.24-1.549-0.24-2.682v-11.309h4.255c1.153,0,2.078,0.105,2.78,0.318c0.7,0.213,1.325,0.665,1.875,1.355 c0.336,0.426,0.66,1.114,0.97,2.062c0.31,0.949,0.5,1.849,0.572,2.699h1.994v-14.786h-1.994c-0.089,0.764-0.271,1.574-0.545,2.434 c-0.276,0.86-0.608,1.547-0.997,2.06c-0.48,0.604-1.034,1.034-1.663,1.291c-0.629,0.257-1.626,0.385-2.992,0.385h-4.255v-14.998 h5.93c0.976,0,1.845,0.018,2.607,0.053c0.762,0.036,1.418,0.089,1.967,0.16c1.065,0.141,2.185,0.97,3.365,2.486 c1.178,1.515,1.945,2.947,2.3,4.295h1.995v-9.096h-29.2v1.889c0.479,0.035,1.121,0.142,1.928,0.319s1.449,0.381,1.929,0.612 c0.62,0.283,1.027,0.651,1.222,1.102c0.196,0.453,0.293,0.972,0.293,1.557v27.125c0,0.656-0.111,1.196-0.333,1.623 c-0.221,0.425-0.616,0.77-1.182,1.036c-0.267,0.124-0.843,0.244-1.729,0.359c-0.887,0.116-1.596,0.191-2.128,0.226v1.889h31.327 l0.718-11.116h-1.915C1327.311,423.127,1326.739,424.398,1325.844,426.128 M1438.735,398.231c-2.189-1.692-5.039-2.54-8.55-2.54 h-17.232v1.889c0.478,0.035,1.051,0.102,1.715,0.199c0.665,0.098,1.335,0.262,2.008,0.492c0.656,0.249,1.073,0.621,1.25,1.117 c0.177,0.497,0.266,1.055,0.266,1.675v27.232c0,0.691-0.12,1.26-0.359,1.702c-0.24,0.443-0.625,0.78-1.157,1.011 c-0.319,0.141-0.882,0.257-1.688,0.346c-0.808,0.087-1.424,0.15-1.849,0.185v1.889h16.196v-1.889 c-0.674-0.018-1.414-0.08-2.221-0.185c-0.807-0.107-1.369-0.222-1.689-0.346c-0.638-0.248-1.059-0.608-1.263-1.077 c-0.204-0.47-0.306-1.016-0.306-1.636v-11.436h4.229c1.807,0,3.519-0.229,5.132-0.69c1.613-0.461,3.093-1.188,4.442-2.182 c1.364-0.992,2.432-2.247,3.203-3.761c0.771-1.517,1.157-3.259,1.157-5.226C1442.019,402.181,1440.924,399.925,1438.735,398.231 M1435.131,408.789c-0.195,0.913-0.593,1.795-1.196,2.646c-0.603,0.887-1.503,1.627-2.699,2.22 c-1.196,0.595-2.753,0.891-4.667,0.891h-2.713v-16.673h3.75c1.506,0,2.766,0.23,3.776,0.69c1.01,0.462,1.827,1.11,2.447,1.942 c0.585,0.78,0.997,1.693,1.236,2.739c0.239,1.047,0.359,2.074,0.359,3.085C1435.424,407.057,1435.327,407.876,1435.131,408.789 M1376.412,405.93h1.861c0.16-0.584,0.443-1.325,0.851-2.221c0.408-0.895,0.878-1.741,1.41-2.539 c0.531-0.798,1.112-1.511,1.742-2.141c0.629-0.63,1.236-0.979,1.821-1.05c0.744-0.088,1.525-0.146,2.34-0.173 c0.816-0.027,1.498-0.039,2.048-0.039h1.542v30.421c0,0.727-0.137,1.309-0.412,1.743s-0.704,0.766-1.289,0.997 c-0.391,0.159-1.095,0.293-2.114,0.398c-1.02,0.107-1.779,0.178-2.275,0.213v1.889h17.818v-1.889 c-0.568-0.018-1.361-0.133-2.379-0.346c-1.021-0.212-1.69-0.381-2.009-0.505c-0.62-0.265-1.055-0.642-1.303-1.13 c-0.249-0.488-0.372-1.024-0.372-1.609v-30.182h1.546c0.71,0,1.483,0.017,2.318,0.052c0.836,0.035,1.529,0.089,2.079,0.16 c0.586,0.088,1.195,0.438,1.826,1.05c0.63,0.613,1.212,1.325,1.746,2.141c0.515,0.781,0.982,1.609,1.399,2.486 c0.418,0.877,0.706,1.636,0.866,2.274h1.835v-10.239h-32.895V405.93z M1290.13,430.795c-0.547-0.283-1.2-0.713-1.959-1.29 c-0.759-0.576-1.518-1.343-2.277-2.3c-1.988-2.498-3.865-4.847-5.631-7.045c-1.765-2.197-3.998-4.82-6.695-7.868 c1.946-1.826,3.911-3.849,5.894-6.067c1.981-2.217,3.885-4.364,5.71-6.437c0.425-0.461,0.97-0.848,1.634-1.158 c0.664-0.31,1.307-0.536,1.927-0.678c0.391-0.07,0.709-0.133,0.957-0.185c0.248-0.054,0.496-0.089,0.744-0.107 c0.231-0.017,0.435-0.036,0.612-0.054c0.176-0.017,0.292-0.026,0.345-0.026v-1.889h-14.147v1.889 c0.248,0.018,0.567,0.04,0.957,0.066c0.389,0.027,0.833,0.093,1.33,0.2c0.425,0.106,0.802,0.244,1.13,0.412 c0.328,0.169,0.492,0.386,0.492,0.651c0,0.745-0.323,1.601-0.971,2.567c-0.647,0.966-1.671,2.255-3.071,3.87 c-1.259,1.453-2.659,2.911-4.202,4.374c-1.542,1.463-3.112,2.868-4.707,4.215h-0.531v-13.031c0-0.585,0.106-1.126,0.318-1.623 c0.213-0.496,0.621-0.85,1.224-1.063c0.354-0.124,0.904-0.257,1.648-0.399c0.745-0.141,1.365-0.221,1.862-0.239v-1.889h-15.664 v1.889c0.496,0.035,1.073,0.142,1.729,0.319s1.223,0.381,1.702,0.612c0.602,0.283,1.006,0.647,1.21,1.09 c0.204,0.444,0.305,0.966,0.305,1.569v27.231c0,0.638-0.119,1.183-0.358,1.636c-0.239,0.452-0.626,0.793-1.157,1.024 c-0.319,0.141-0.869,0.248-1.649,0.319c-0.781,0.07-1.374,0.124-1.782,0.159v1.889h15.664v-1.889 c-0.514-0.018-1.157-0.115-1.928-0.292c-0.771-0.178-1.299-0.328-1.582-0.452c-0.585-0.283-0.989-0.655-1.21-1.116 c-0.222-0.462-0.332-0.986-0.332-1.57v-13.136h0.691c2.729,2.924,5.34,5.942,7.831,9.053c2.491,3.112,4.756,6.246,6.795,9.402 h10.584v-1.889c-0.459-0.018-1.033-0.089-1.722-0.213C1291.163,431.202,1290.589,431.025,1290.13,430.795 M1226.865,400.16 c-1.613-1.703-3.528-3.023-5.744-3.963c-2.216-0.939-4.575-1.409-7.074-1.409c-2.412,0-4.72,0.461-6.927,1.382 c-2.207,0.923-4.145,2.252-5.811,3.99c-1.684,1.754-3.005,3.833-3.963,6.236c-0.957,2.402-1.435,5.136-1.435,8.203 c0,2.802,0.456,5.43,1.369,7.885c0.913,2.456,2.168,4.544,3.763,6.263c1.595,1.756,3.505,3.124,5.731,4.109 c2.225,0.984,4.649,1.475,7.273,1.475c2.464,0,4.787-0.46,6.967-1.382c2.181-0.922,4.096-2.234,5.744-3.936 c1.703-1.719,3.033-3.802,3.99-6.249c0.957-2.447,1.436-5.168,1.436-8.165c0-2.978-0.471-5.695-1.41-8.151 C1229.835,403.993,1228.531,401.897,1226.865,400.16 M1225.07,421.434c-0.452,2.039-1.175,3.865-2.167,5.478 c-0.958,1.596-2.199,2.837-3.724,3.724c-1.524,0.885-3.235,1.329-5.132,1.329c-2.021,0-3.758-0.439-5.212-1.317 c-1.454-0.877-2.66-2.096-3.617-3.657c-0.993-1.595-1.719-3.421-2.18-5.477c-0.461-2.056-0.692-4.362-0.692-6.915 c0-2.304,0.217-4.502,0.652-6.594c0.433-2.093,1.094-3.919,1.981-5.479c0.939-1.63,2.154-2.933,3.643-3.909 c1.489-0.974,3.298-1.462,5.425-1.462c1.897,0,3.582,0.421,5.052,1.262c1.472,0.842,2.696,2.018,3.67,3.523 c0.975,1.526,1.716,3.37,2.222,5.533c0.505,2.163,0.758,4.539,0.758,7.126C1225.749,417.117,1225.522,419.396,1225.07,421.434 M1656.039,404.946c-1.33-1.17-3.015-2.083-5.053-2.738c-2.039-0.656-4.45-0.985-7.234-0.985h-0.266v-0.977 c0-0.6,0.11-1.114,0.332-1.545c0.222-0.431,0.634-0.753,1.237-0.965c0.514-0.175,1.108-0.304,1.782-0.382 c0.673-0.08,1.267-0.128,1.782-0.146v-1.889h-15.743v1.889c0.513,0.034,1.112,0.123,1.795,0.264c0.682,0.14,1.28,0.325,1.794,0.554 c0.622,0.265,1.034,0.6,1.237,1.004c0.204,0.406,0.305,0.898,0.305,1.48v0.713h-0.265c-2.783,0-5.203,0.333-7.26,0.998 c-2.057,0.665-3.732,1.573-5.026,2.725c-1.348,1.205-2.319,2.544-2.912,4.016c-0.594,1.472-0.891,3.076-0.891,4.813 c0,2.269,0.412,4.264,1.236,5.984c0.825,1.72,1.964,3.165,3.418,4.334c1.471,1.171,3.204,2.048,5.198,2.633 c1.996,0.586,4.163,0.878,6.502,0.878v1.188c0,0.635-0.124,1.154-0.372,1.56c-0.248,0.405-0.637,0.722-1.17,0.951 c-0.319,0.141-0.881,0.252-1.688,0.331s-1.423,0.137-1.849,0.171v1.888h15.983v-1.888c-0.674-0.017-1.405-0.075-2.194-0.171 c-0.789-0.097-1.343-0.206-1.662-0.331c-0.637-0.246-1.059-0.573-1.263-0.978c-0.204-0.404-0.306-0.916-0.306-1.533v-1.188 c2.341,0,4.499-0.301,6.476-0.905c1.976-0.602,3.692-1.47,5.145-2.606c1.437-1.134,2.584-2.579,3.444-4.334 c0.86-1.755,1.29-3.75,1.29-5.984c0-1.703-0.305-3.306-0.918-4.813C1658.312,407.455,1657.35,406.116,1656.039,404.946 M1637.981,425.423c-1.826,0-3.448-0.336-4.866-1.009c-1.419-0.673-2.579-1.77-3.484-3.294c-0.78-1.346-1.254-2.571-1.422-3.679 c-0.169-1.106-0.253-2.12-0.253-3.042c0-1.328,0.15-2.642,0.452-3.943c0.302-1.302,0.77-2.457,1.409-3.467 c0.763-1.169,1.725-2.071,2.886-2.709c1.161-0.637,2.548-0.956,4.162-0.956h1.116V425.423z M1653.207,417.521 c-0.223,1.213-0.679,2.414-1.37,3.599c-0.798,1.328-1.902,2.377-3.311,3.148c-1.41,0.77-3.081,1.155-5.013,1.155v-22.099h1.116 c1.72,0,3.156,0.346,4.309,1.035c1.152,0.692,2.065,1.568,2.738,2.63c0.639,1.01,1.109,2.214,1.411,3.613 c0.301,1.399,0.452,2.665,0.452,3.797C1653.539,415.268,1653.427,416.308,1653.207,417.521 M1616.499,430.636 c-0.603-0.408-1.074-0.829-1.41-1.264c-0.336-0.435-0.638-0.988-0.904-1.662l-12.658-32.55h-2.128 c-1.844,4.716-3.855,9.871-6.036,15.464c-2.181,5.593-4.326,11.014-6.436,16.261c-0.372,0.923-0.754,1.645-1.143,2.168 c-0.391,0.523-0.941,1.024-1.65,1.503c-0.443,0.283-1.01,0.509-1.701,0.677s-1.267,0.271-1.729,0.306v1.889h14.203v-1.889 c-1.667-0.124-2.992-0.381-3.976-0.77c-0.984-0.39-1.476-0.914-1.476-1.57c0-0.319,0.045-0.726,0.133-1.222 c0.088-0.497,0.248-1.1,0.479-1.81c0.45-1.435,1.617-4.601,3.503-9.493c1.885-4.894,3.593-9.31,5.123-13.248l9.905,25.401 c0.072,0.177,0.124,0.382,0.16,0.611c0.036,0.232,0.054,0.426,0.054,0.586c0,0.355-0.408,0.664-1.224,0.93 c-0.815,0.267-2.003,0.461-3.563,0.585v1.889h15.718v-1.889c-0.444-0.018-0.993-0.11-1.649-0.279 C1617.438,431.092,1616.907,430.884,1616.499,430.636 M1190.559,430.795c-0.548-0.283-1.2-0.713-1.959-1.29 c-0.759-0.576-1.518-1.343-2.277-2.3c-1.988-2.498-3.864-4.847-5.631-7.045c-1.766-2.197-3.998-4.82-6.695-7.868 c1.946-1.826,3.911-3.849,5.893-6.067c1.983-2.217,3.886-4.364,5.711-6.437c0.425-0.461,0.97-0.848,1.634-1.158 c0.665-0.31,1.307-0.536,1.928-0.678c0.389-0.07,0.708-0.133,0.957-0.185c0.248-0.054,0.496-0.089,0.744-0.107 c0.229-0.017,0.433-0.036,0.61-0.054c0.178-0.017,0.293-0.026,0.347-0.026v-1.889h-14.149v1.889 c0.249,0.018,0.568,0.04,0.957,0.066c0.391,0.027,0.834,0.093,1.331,0.2c0.425,0.106,0.801,0.244,1.129,0.412 c0.329,0.169,0.493,0.386,0.493,0.651c0,0.745-0.324,1.601-0.971,2.567c-0.647,0.966-1.671,2.255-3.071,3.87 c-1.259,1.453-2.66,2.911-4.202,4.374s-3.112,2.868-4.708,4.215h-0.531v-13.031c0-0.585,0.107-1.126,0.32-1.623 c0.211-0.496,0.62-0.85,1.222-1.063c0.355-0.124,0.905-0.257,1.649-0.399c0.745-0.141,1.365-0.221,1.862-0.239v-1.889h-15.664 v1.889c0.496,0.035,1.073,0.142,1.729,0.319c0.656,0.177,1.223,0.381,1.702,0.612c0.602,0.283,1.005,0.647,1.21,1.09 c0.204,0.444,0.305,0.966,0.305,1.569v27.231c0,0.638-0.119,1.183-0.358,1.636c-0.239,0.452-0.625,0.793-1.157,1.024 c-0.319,0.141-0.869,0.248-1.649,0.319c-0.78,0.07-1.374,0.124-1.782,0.159v1.889h15.664v-1.889 c-0.515-0.018-1.157-0.115-1.929-0.292c-0.77-0.178-1.298-0.328-1.582-0.452c-0.585-0.283-0.988-0.655-1.21-1.116 c-0.221-0.462-0.332-0.986-0.332-1.57v-13.136h0.692c2.729,2.924,5.34,5.942,7.831,9.053c2.491,3.112,4.756,6.246,6.795,9.402 h10.584v-1.889c-0.459-0.018-1.033-0.089-1.721-0.213C1191.591,431.202,1191.018,431.025,1190.559,430.795 M745.828,397.58 c0.513,0.035,1.174,0.147,1.981,0.332c0.807,0.187,1.476,0.386,2.008,0.599c0.727,0.283,1.188,0.635,1.383,1.05 c0.194,0.418,0.292,0.935,0.292,1.555v27.339c0,0.708-0.133,1.264-0.399,1.662c-0.265,0.399-0.691,0.713-1.276,0.944 c-0.372,0.141-1.011,0.248-1.915,0.319c-0.904,0.07-1.596,0.124-2.074,0.159v1.889h16.993v-1.889 c-0.585-0.018-1.299-0.11-2.141-0.279c-0.841-0.168-1.45-0.323-1.822-0.465c-0.62-0.266-1.059-0.625-1.316-1.076 c-0.257-0.453-0.385-0.972-0.385-1.557v-27.311c0-0.585,0.115-1.117,0.346-1.596c0.23-0.479,0.681-0.824,1.355-1.037 c0.567-0.177,1.232-0.323,1.995-0.439c0.762-0.115,1.418-0.181,1.968-0.199v-1.889h-16.993V397.58z M1699.992,424.972 c-0.249,0.584-0.576,1.195-0.985,1.834c-0.354,0.568-0.78,1.033-1.276,1.396s-1.072,0.545-1.728,0.545h-6.037v-0.877 c1.205-1.33,2.424-2.722,3.657-4.176c1.232-1.453,2.291-2.898,3.178-4.335c0.869-1.435,1.533-2.947,1.995-4.533 c0.459-1.587,0.691-3.302,0.691-5.145c0-1.969-0.413-3.844-1.236-5.626c-0.826-1.781-1.992-3.364-3.498-4.747 c-1.507-1.365-3.329-2.46-5.464-3.284c-2.138-0.824-4.499-1.236-7.088-1.236c-2.483,0-4.8,0.407-6.954,1.223 c-2.154,0.816-3.976,1.897-5.465,3.244c-1.56,1.419-2.757,3.001-3.59,4.747c-0.834,1.747-1.25,3.64-1.25,5.679 c0,1.843,0.243,3.576,0.731,5.198s1.148,3.107,1.981,4.454c0.727,1.188,1.756,2.585,3.085,4.188c1.33,1.605,2.57,3.055,3.723,4.349 v0.877h-6.116c-0.71,0-1.295-0.178-1.755-0.531c-0.462-0.355-0.878-0.824-1.25-1.41c-0.408-0.62-0.731-1.219-0.97-1.795 c-0.24-0.575-0.501-1.21-0.785-1.902h-1.835l1.835,10.319h15.77v-1.809c-0.99-1.4-2.019-2.89-3.088-4.468 c-1.069-1.577-1.948-3.101-2.638-4.573c-0.724-1.49-1.281-3.027-1.669-4.614c-0.389-1.587-0.583-3.355-0.583-5.306 c0-1.72,0.159-3.487,0.477-5.304c0.318-1.818,0.84-3.427,1.566-4.828c0.918-1.808,2.13-3.155,3.633-4.042 c1.503-0.886,3.219-1.329,5.147-1.329c1.928,0,3.634,0.421,5.12,1.262c1.485,0.842,2.724,2.203,3.714,4.083 c0.724,1.418,1.242,3.098,1.552,5.039c0.309,1.94,0.464,3.648,0.464,5.119c0,2.093-0.186,3.864-0.557,5.32 c-0.371,1.454-0.927,2.968-1.669,4.546c-0.654,1.401-1.507,2.881-2.559,4.441c-1.051,1.56-2.115,3.112-3.193,4.654v1.809h15.69 l1.835-10.319h-1.835C1700.498,423.766,1700.24,424.386,1699.992,424.972 M1574.105,426.128c-0.894,1.728-1.75,3.018-2.566,3.869 c-0.301,0.319-0.811,0.572-1.53,0.758c-0.716,0.186-1.413,0.314-2.087,0.386c-0.656,0.07-1.462,0.106-2.419,0.106h-2.314 c-1.472,0-2.606-0.049-3.404-0.146c-0.798-0.097-1.427-0.314-1.888-0.651c-0.461-0.336-0.771-0.831-0.931-1.486 s-0.239-1.549-0.239-2.682v-11.309h4.255c1.152,0,2.078,0.105,2.778,0.318c0.701,0.213,1.326,0.665,1.875,1.355 c0.337,0.426,0.661,1.114,0.971,2.062c0.31,0.949,0.501,1.849,0.572,2.699h1.994v-14.786h-1.994 c-0.09,0.764-0.27,1.574-0.546,2.434c-0.274,0.86-0.607,1.547-0.997,2.06c-0.478,0.604-1.033,1.034-1.662,1.291 c-0.629,0.257-1.627,0.385-2.991,0.385h-4.255v-14.998h5.93c0.974,0,1.844,0.018,2.606,0.053c0.762,0.036,1.418,0.089,1.968,0.16 c1.064,0.141,2.185,0.97,3.364,2.486c1.179,1.515,1.946,2.947,2.301,4.295h1.993v-9.096h-29.199v1.889 c0.48,0.035,1.121,0.142,1.929,0.319c0.806,0.177,1.449,0.381,1.927,0.612c0.621,0.283,1.029,0.651,1.224,1.102 c0.194,0.453,0.292,0.972,0.292,1.557v27.125c0,0.656-0.11,1.196-0.332,1.623c-0.223,0.425-0.616,0.77-1.184,1.036 c-0.265,0.124-0.842,0.244-1.728,0.359c-0.887,0.116-1.596,0.191-2.128,0.226v1.889h31.327l0.718-11.116h-1.914 C1575.572,423.127,1575.001,424.398,1574.105,426.128 M1523.921,395.16l-17.02,36.938v1.33h34.97v-1.33l-15.876-36.938H1523.921z M1511.089,428.854l12.004-26.371l11.277,26.371H1511.089z M1476.706,400.16c-1.613-1.703-3.528-3.023-5.743-3.963 c-2.217-0.939-4.575-1.409-7.075-1.409c-2.411,0-4.72,0.461-6.927,1.382c-2.207,0.923-4.145,2.252-5.811,3.99 c-1.685,1.754-3.005,3.833-3.962,6.236c-0.958,2.402-1.436,5.136-1.436,8.203c0,2.802,0.457,5.43,1.37,7.885 c0.912,2.456,2.167,4.544,3.762,6.263c1.596,1.756,3.505,3.124,5.731,4.109c2.224,0.984,4.649,1.475,7.273,1.475 c2.464,0,4.787-0.46,6.968-1.382c2.18-0.922,4.095-2.234,5.744-3.936c1.702-1.719,3.031-3.802,3.989-6.249 c0.957-2.447,1.436-5.168,1.436-8.165c0-2.978-0.47-5.695-1.409-8.151C1479.675,403.993,1478.373,401.897,1476.706,400.16 M1474.911,421.434c-0.451,2.039-1.174,3.865-2.167,5.478c-0.958,1.596-2.198,2.837-3.723,3.724 c-1.525,0.885-3.236,1.329-5.133,1.329c-2.02,0-3.759-0.439-5.212-1.317c-1.454-0.877-2.659-2.096-3.617-3.657 c-0.993-1.595-1.72-3.421-2.18-5.477c-0.461-2.056-0.692-4.362-0.692-6.915c0-2.304,0.218-4.502,0.651-6.594 c0.435-2.093,1.095-3.919,1.982-5.479c0.939-1.63,2.154-2.933,3.643-3.909c1.49-0.974,3.297-1.462,5.425-1.462 c1.897,0,3.581,0.421,5.053,1.262c1.472,0.842,2.694,2.018,3.67,3.523c0.975,1.526,1.716,3.37,2.221,5.533s0.757,4.539,0.757,7.126 C1475.589,417.117,1475.363,419.396,1474.911,421.434 M836.017,400.16c-1.613-1.703-3.528-3.023-5.744-3.963 c-2.216-0.939-4.574-1.409-7.074-1.409c-2.411,0-4.72,0.461-6.927,1.382c-2.207,0.923-4.144,2.252-5.81,3.99 c-1.685,1.754-3.005,3.833-3.963,6.236c-0.957,2.402-1.436,5.136-1.436,8.203c0,2.802,0.456,5.43,1.369,7.885 c0.913,2.456,2.168,4.544,3.763,6.263c1.596,1.756,3.506,3.124,5.73,4.109c2.226,0.984,4.651,1.475,7.274,1.475 c2.465,0,4.787-0.46,6.968-1.382c2.18-0.922,4.095-2.234,5.744-3.936c1.702-1.719,3.032-3.802,3.989-6.249 c0.957-2.447,1.437-5.168,1.437-8.165c0-2.978-0.471-5.695-1.411-8.151C838.987,403.993,837.683,401.897,836.017,400.16 M834.222,421.434c-0.452,2.039-1.174,3.865-2.168,5.478c-0.957,1.596-2.198,2.837-3.722,3.724 c-1.525,0.885-3.236,1.329-5.133,1.329c-2.021,0-3.758-0.439-5.212-1.317c-1.453-0.877-2.659-2.096-3.616-3.657 c-0.993-1.595-1.72-3.421-2.182-5.477c-0.46-2.056-0.69-4.362-0.69-6.915c0-2.304,0.216-4.502,0.651-6.594 c0.434-2.093,1.095-3.919,1.982-5.479c0.938-1.63,2.154-2.933,3.642-3.909c1.489-0.974,3.298-1.462,5.425-1.462 c1.897,0,3.582,0.421,5.053,1.262c1.471,0.842,2.695,2.018,3.67,3.523c0.974,1.526,1.715,3.37,2.22,5.533s0.759,4.539,0.759,7.126 C834.901,417.117,834.674,419.396,834.222,421.434 M980.794,430.636c-0.603-0.408-1.074-0.829-1.41-1.264 c-0.337-0.435-0.638-0.988-0.904-1.662l-12.658-32.55h-2.128c-1.844,4.716-3.856,9.871-6.037,15.464 c-2.18,5.593-4.325,11.014-6.435,16.261c-0.373,0.923-0.754,1.645-1.143,2.168c-0.391,0.523-0.941,1.024-1.65,1.503 c-0.443,0.283-1.01,0.509-1.701,0.677c-0.692,0.168-1.267,0.271-1.729,0.306v1.889h14.202v-1.889 c-1.666-0.124-2.991-0.381-3.976-0.77c-0.983-0.39-1.475-0.914-1.475-1.57c0-0.319,0.045-0.726,0.132-1.222 c0.089-0.497,0.248-1.1,0.48-1.81c0.45-1.435,1.617-4.601,3.503-9.493c1.885-4.894,3.593-9.31,5.123-13.248l9.905,25.401 c0.071,0.177,0.124,0.382,0.16,0.611c0.035,0.232,0.054,0.426,0.054,0.586c0,0.355-0.408,0.664-1.224,0.93 c-0.815,0.267-2.004,0.461-3.563,0.585v1.889h15.718v-1.889c-0.444-0.018-0.993-0.11-1.649-0.279 C981.733,431.092,981.202,430.884,980.794,430.636 M1136.675,397.58c0.515,0.035,1.174,0.147,1.982,0.332 c0.806,0.187,1.475,0.386,2.008,0.599c0.726,0.283,1.187,0.635,1.382,1.05c0.195,0.418,0.292,0.935,0.292,1.555v27.339 c0,0.708-0.132,1.264-0.398,1.662c-0.266,0.399-0.691,0.713-1.276,0.944c-0.372,0.141-1.011,0.248-1.915,0.319 c-0.905,0.07-1.596,0.124-2.075,0.159v1.889h16.994v-1.889c-0.585-0.018-1.299-0.11-2.141-0.279 c-0.842-0.168-1.449-0.323-1.822-0.465c-0.62-0.266-1.059-0.625-1.316-1.076c-0.258-0.453-0.386-0.972-0.386-1.557v-27.311 c0-0.585,0.116-1.117,0.346-1.596c0.231-0.479,0.682-0.824,1.356-1.037c0.567-0.177,1.232-0.323,1.995-0.439 c0.762-0.115,1.418-0.181,1.968-0.199v-1.889h-16.994V397.58z M866.213,397.58c0.496,0.035,1.085,0.142,1.768,0.319 s1.264,0.381,1.742,0.612c0.568,0.265,0.966,0.635,1.197,1.102c0.23,0.471,0.345,0.99,0.345,1.557v27.231 c0,0.692-0.124,1.255-0.372,1.69c-0.249,0.433-0.638,0.757-1.17,0.97c-0.301,0.141-0.855,0.248-1.662,0.319 c-0.807,0.07-1.423,0.124-1.848,0.159v1.889h15.664v-1.889c-0.444-0.018-1.051-0.106-1.823-0.266 c-0.77-0.159-1.307-0.319-1.608-0.478c-0.604-0.32-1.007-0.692-1.21-1.118c-0.205-0.426-0.306-0.949-0.306-1.572v-30.046h17.366 v30.34c0,0.693-0.125,1.255-0.373,1.691c-0.249,0.433-0.638,0.758-1.17,0.971c-0.301,0.141-0.856,0.248-1.663,0.319 c-0.806,0.07-1.422,0.124-1.848,0.159v1.889h15.664v-1.889c-0.443-0.018-1.051-0.106-1.821-0.266 c-0.772-0.159-1.308-0.319-1.61-0.478c-0.602-0.319-1.006-0.691-1.21-1.116c-0.204-0.427-0.305-0.95-0.305-1.57v-27.205 c0-0.585,0.101-1.126,0.305-1.623c0.204-0.496,0.608-0.85,1.21-1.063c0.355-0.124,0.891-0.257,1.61-0.399 c0.717-0.141,1.324-0.221,1.821-0.239v-1.889h-38.693V397.58z M760.055,384.149c-0.869,0-1.609,0.32-2.22,0.959 c-0.612,0.638-0.917,1.409-0.917,2.314c0,0.903,0.305,1.675,0.917,2.313c0.611,0.638,1.351,0.957,2.22,0.957 c0.868,0,1.609-0.319,2.221-0.957c0.611-0.638,0.917-1.41,0.917-2.313c0-0.905-0.306-1.676-0.917-2.314 C761.664,384.469,760.923,384.149,760.055,384.149 M799.712,430.795c-0.548-0.283-1.201-0.713-1.959-1.29 c-0.76-0.576-1.519-1.343-2.278-2.3c-1.988-2.498-3.864-4.847-5.631-7.045c-1.765-2.197-3.998-4.82-6.695-7.868 c1.946-1.826,3.911-3.849,5.894-6.067c1.982-2.217,3.885-4.364,5.711-6.437c0.424-0.461,0.969-0.848,1.633-1.158 c0.665-0.31,1.307-0.536,1.928-0.678c0.39-0.07,0.708-0.133,0.956-0.185c0.249-0.054,0.497-0.089,0.745-0.107 c0.23-0.017,0.434-0.036,0.611-0.054c0.177-0.017,0.293-0.026,0.345-0.026v-1.889h-14.147v1.889 c0.248,0.018,0.567,0.04,0.957,0.066c0.391,0.027,0.833,0.093,1.33,0.2c0.425,0.106,0.802,0.244,1.13,0.412 c0.328,0.169,0.492,0.386,0.492,0.651c0,0.745-0.323,1.601-0.971,2.567c-0.647,0.966-1.671,2.255-3.071,3.87 c-1.259,1.453-2.659,2.911-4.202,4.374c-1.542,1.463-3.111,2.868-4.707,4.215h-0.531v-13.031c0-0.585,0.106-1.126,0.319-1.623 c0.212-0.496,0.62-0.85,1.223-1.063c0.354-0.124,0.904-0.257,1.648-0.399c0.745-0.141,1.365-0.221,1.862-0.239v-1.889H766.64v1.889 c0.496,0.035,1.074,0.142,1.73,0.319c0.655,0.177,1.222,0.381,1.701,0.612c0.602,0.283,1.006,0.647,1.21,1.09 c0.204,0.444,0.306,0.966,0.306,1.569v27.231c0,0.638-0.12,1.183-0.359,1.636c-0.239,0.452-0.625,0.793-1.157,1.024 c-0.318,0.141-0.868,0.248-1.648,0.319c-0.781,0.07-1.375,0.124-1.783,0.159v1.889h15.664v-1.889 c-0.514-0.018-1.157-0.115-1.928-0.292c-0.771-0.178-1.298-0.328-1.582-0.452c-0.585-0.283-0.989-0.655-1.21-1.116 c-0.222-0.462-0.332-0.986-0.332-1.57v-13.136h0.691c2.73,2.924,5.34,5.942,7.831,9.053c2.491,3.112,4.756,6.246,6.795,9.402 h10.584v-1.889c-0.459-0.018-1.033-0.089-1.721-0.213C800.744,431.202,800.171,431.025,799.712,430.795 M937.77,400.16 c-1.613-1.703-3.528-3.023-5.744-3.963c-2.216-0.939-4.574-1.409-7.074-1.409c-2.411,0-4.72,0.461-6.927,1.382 c-2.207,0.923-4.144,2.252-5.81,3.99c-1.685,1.754-3.005,3.833-3.963,6.236c-0.957,2.402-1.436,5.136-1.436,8.203 c0,2.802,0.456,5.43,1.369,7.885c0.913,2.456,2.168,4.544,3.763,6.263c1.596,1.756,3.506,3.124,5.731,4.109 c2.225,0.984,4.65,1.475,7.273,1.475c2.465,0,4.787-0.46,6.968-1.382c2.18-0.922,4.095-2.234,5.744-3.936 c1.702-1.719,3.032-3.802,3.989-6.249c0.957-2.447,1.436-5.168,1.436-8.165c0-2.978-0.47-5.695-1.41-8.151 C940.74,403.993,939.436,401.897,937.77,400.16 M935.975,421.434c-0.452,2.039-1.175,3.865-2.168,5.478 c-0.957,1.596-2.198,2.837-3.722,3.724c-1.525,0.885-3.236,1.329-5.133,1.329c-2.021,0-3.758-0.439-5.212-1.317 c-1.453-0.877-2.659-2.096-3.616-3.657c-0.993-1.595-1.72-3.421-2.182-5.477c-0.46-2.056-0.69-4.362-0.69-6.915 c0-2.304,0.216-4.502,0.651-6.594c0.434-2.093,1.095-3.919,1.981-5.479c0.939-1.63,2.155-2.933,3.643-3.909 c1.489-0.974,3.298-1.462,5.425-1.462c1.897,0,3.582,0.421,5.053,1.262c1.471,0.842,2.695,2.018,3.669,3.523 c0.975,1.526,1.716,3.37,2.221,5.533c0.506,2.163,0.759,4.539,0.759,7.126C936.654,417.117,936.427,419.396,935.975,421.434 M1094.787,423.947c-0.32,0.824-0.683,1.574-1.091,2.247c-0.443,0.744-0.976,1.357-1.596,1.835 c-0.62,0.479-1.329,0.718-2.127,0.718h-17.365l13.828-15.317v-0.426l-11.828-15.211h8.212c0.62,0,1.422,0.022,2.406,0.066 s1.742,0.111,2.275,0.2c1.186,0.195,2.335,1.076,3.443,2.646c1.107,1.569,1.857,3.239,2.247,5.013h1.889v-10.027h-28.455v0.931 l14.751,18.972l-15.177,16.903v0.931h30.051l1.25-11.782h-1.863C1095.389,422.356,1095.106,423.123,1094.787,423.947 M987.858,397.58c0.514,0.035,1.174,0.147,1.98,0.332c0.807,0.187,1.476,0.386,2.008,0.599c0.727,0.283,1.188,0.635,1.383,1.05 c0.195,0.418,0.293,0.935,0.293,1.555v27.339c0,0.708-0.133,1.264-0.399,1.662c-0.266,0.399-0.692,0.713-1.277,0.944 c-0.372,0.141-1.01,0.248-1.915,0.319c-0.903,0.07-1.594,0.124-2.073,0.159v1.889h16.992v-1.889 c-0.585-0.018-1.299-0.11-2.139-0.279c-0.843-0.168-1.451-0.323-1.823-0.465c-0.621-0.266-1.059-0.625-1.316-1.076 c-0.257-0.453-0.386-0.972-0.386-1.557v-27.311c0-0.585,0.115-1.117,0.346-1.596c0.23-0.479,0.682-0.824,1.356-1.037 c0.567-0.177,1.233-0.323,1.994-0.439c0.763-0.115,1.419-0.181,1.968-0.199v-1.889h-16.992V397.58z M1045.386,397.58 c0.514,0.035,1.174,0.147,1.982,0.332c0.806,0.187,1.475,0.386,2.008,0.599c0.726,0.283,1.186,0.635,1.382,1.05 c0.195,0.418,0.292,0.935,0.292,1.555v27.339c0,0.708-0.132,1.264-0.398,1.662c-0.266,0.399-0.692,0.713-1.276,0.944 c-0.372,0.141-1.011,0.248-1.915,0.319c-0.905,0.07-1.596,0.124-2.075,0.159v1.889h16.993v-1.889 c-0.584-0.018-1.298-0.11-2.14-0.279c-0.843-0.168-1.45-0.323-1.822-0.465c-0.621-0.266-1.06-0.625-1.317-1.076 c-0.257-0.453-0.385-0.972-0.385-1.557v-27.311c0-0.585,0.116-1.117,0.346-1.596c0.23-0.479,0.682-0.824,1.356-1.037 c0.567-0.177,1.232-0.323,1.995-0.439c0.761-0.115,1.418-0.181,1.967-0.199v-1.889h-16.993V397.58z M1099.96,405.93h1.861 c0.16-0.584,0.443-1.325,0.85-2.221c0.409-0.895,0.878-1.741,1.411-2.539c0.532-0.798,1.112-1.511,1.742-2.141 c0.629-0.63,1.236-0.979,1.821-1.05c0.744-0.088,1.525-0.146,2.34-0.173c0.815-0.027,1.498-0.039,2.048-0.039h1.543v30.421 c0,0.727-0.138,1.309-0.412,1.743c-0.276,0.434-0.705,0.766-1.29,0.997c-0.391,0.159-1.095,0.293-2.115,0.398 c-1.019,0.107-1.777,0.178-2.274,0.213v1.889h17.818v-1.889c-0.567-0.018-1.361-0.133-2.38-0.346 c-1.02-0.212-1.689-0.381-2.008-0.505c-0.62-0.265-1.055-0.642-1.303-1.13c-0.248-0.488-0.372-1.024-0.372-1.609v-30.182h1.546 c0.71,0,1.483,0.017,2.319,0.052c0.835,0.035,1.527,0.089,2.078,0.16c0.586,0.088,1.196,0.438,1.826,1.05 c0.63,0.613,1.213,1.325,1.746,2.141c0.515,0.781,0.982,1.609,1.4,2.486c0.417,0.877,0.706,1.636,0.865,2.274h1.836v-10.239 h-32.896V405.93z M1008.671,405.93h1.861c0.16-0.584,0.443-1.325,0.85-2.221c0.409-0.895,0.878-1.741,1.411-2.539 c0.531-0.798,1.112-1.511,1.741-2.141c0.63-0.63,1.237-0.979,1.822-1.05c0.744-0.088,1.524-0.146,2.34-0.173 c0.815-0.027,1.498-0.039,2.048-0.039h1.542v30.421c0,0.727-0.137,1.309-0.412,1.743c-0.275,0.434-0.704,0.766-1.289,0.997 c-0.391,0.159-1.095,0.293-2.115,0.398c-1.019,0.107-1.778,0.178-2.274,0.213v1.889h17.818v-1.889 c-0.567-0.018-1.361-0.133-2.38-0.346c-1.02-0.212-1.689-0.381-2.008-0.505c-0.621-0.265-1.055-0.642-1.303-1.13 c-0.249-0.488-0.372-1.024-0.372-1.609v-30.182h1.546c0.71,0,1.483,0.017,2.318,0.052c0.836,0.035,1.528,0.089,2.079,0.16 c0.586,0.088,1.194,0.438,1.825,1.05c0.631,0.613,1.213,1.325,1.746,2.141c0.516,0.781,0.983,1.609,1.4,2.486 c0.418,0.877,0.706,1.636,0.866,2.274h1.835v-10.239h-32.895V405.93z M521.512,262.512c-0.671,1.266-1.751,2.222-3.24,2.867 c-0.745,0.349-2.271,0.659-4.58,0.932c-2.31,0.273-4.184,0.409-5.624,0.409v5.288h43.794c7.249,0,14.274-1.042,21.077-3.127 c6.802-2.086,12.934-5.238,18.397-9.459c5.411-4.22,9.805-9.633,13.182-16.237c3.376-6.604,5.065-14.399,5.065-23.386 c0-9.683-1.763-18.099-5.288-25.248c-3.527-7.151-8.392-12.934-14.598-17.354c-4.568-3.326-9.932-5.969-16.087-7.932 c-6.157-1.96-12.414-2.942-18.769-2.942h-46.176v5.288c1.29,0.101,2.83,0.324,4.617,0.67c1.788,0.349,3.45,0.895,4.99,1.639 c1.688,0.794,2.818,1.861,3.389,3.202c0.57,1.342,0.856,2.857,0.856,4.544v76.266C522.517,259.72,522.182,261.245,521.512,262.512 M538.382,172.729c1.24-0.049,3.139-0.113,5.697-0.187c2.556-0.074,4.852-0.112,6.889-0.112c6.108,0,11.656,1.166,16.646,3.498 s9.198,5.531,12.625,9.6c3.623,4.268,6.379,9.266,8.267,14.996c1.886,5.73,2.83,12.143,2.83,19.238 c0,7.193-0.707,13.532-2.123,19.014c-1.415,5.483-3.663,10.307-6.741,14.474c-2.929,3.969-6.753,7.07-11.469,9.303 c-4.718,2.231-10.229,3.347-16.535,3.347c-5.462,0-9.508-0.868-12.139-2.603c-2.633-1.736-3.947-4.863-3.947-9.378V172.729z M632.719,262.178c-0.622,1.19-1.725,2.159-3.314,2.903c-0.744,0.349-2.359,0.684-4.841,1.006 c-2.483,0.324-4.469,0.534-5.958,0.633v5.288h87.735l2.011-31.132h-5.362c-0.695,2.284-2.297,5.847-4.804,10.687 c-2.508,4.842-4.904,8.454-7.187,10.837c-0.845,0.895-2.272,1.602-4.283,2.123c-2.01,0.522-3.959,0.882-5.846,1.08 c-1.838,0.199-4.097,0.297-6.778,0.297h-6.479c-4.122,0-7.299-0.135-9.533-0.408c-2.235-0.272-3.998-0.879-5.288-1.822 c-1.292-0.941-2.16-2.33-2.608-4.163c-0.446-1.834-0.67-4.338-0.67-7.51V220.32h11.917c3.227,0,5.821,0.298,7.783,0.894 c1.96,0.596,3.711,1.861,5.251,3.798c0.942,1.192,1.849,3.116,2.718,5.772c0.868,2.657,1.403,5.177,1.601,7.56h5.586v-41.41h-5.586 c-0.248,2.135-0.757,4.407-1.527,6.814c-0.77,2.409-1.701,4.334-2.792,5.773c-1.341,1.688-2.893,2.893-4.655,3.613 c-1.763,0.719-4.556,1.079-8.379,1.079h-11.917v-42.006h16.609c2.73,0,5.163,0.05,7.299,0.149c2.134,0.1,3.971,0.248,5.511,0.447 c2.98,0.397,6.119,2.718,9.421,6.963c3.302,4.246,5.449,8.255,6.444,12.029h5.585v-25.472h-81.777v5.288 c1.34,0.101,3.14,0.399,5.4,0.894c2.258,0.497,4.058,1.068,5.399,1.713c1.737,0.795,2.879,1.825,3.427,3.091 c0.545,1.266,0.818,2.718,0.818,4.357v75.968C633.65,259.472,633.34,260.985,632.719,262.178 M728.51,262.4 c-0.67,1.243-1.75,2.186-3.239,2.83c-0.893,0.399-2.471,0.72-4.729,0.968c-2.26,0.249-3.985,0.423-5.176,0.522v5.288h82.596 l2.234-31.43h-5.287c-1.043,2.88-2.918,6.642-5.623,11.283c-2.707,4.644-5.078,8.107-7.113,10.39 c-0.697,0.795-1.776,1.453-3.24,1.975c-1.466,0.52-3.067,0.93-4.803,1.228c-1.789,0.298-3.676,0.496-5.662,0.596 c-1.986,0.099-3.898,0.148-5.735,0.148c-4.071,0-7.236-0.135-9.495-0.409c-2.261-0.272-3.961-0.856-5.103-1.75 c-1.191-0.993-1.948-2.394-2.27-4.208c-0.324-1.811-0.484-4.356-0.484-7.634v-70.978c0-1.638,0.309-3.177,0.93-4.618 c0.62-1.439,1.775-2.457,3.464-3.054c0.992-0.347,2.594-0.744,4.804-1.191c2.209-0.447,4.009-0.695,5.399-0.745v-5.288h-44.612 v5.288c1.34,0.101,3.04,0.436,5.101,1.005c2.06,0.572,3.662,1.155,4.804,1.75c1.688,0.796,2.818,1.838,3.389,3.129 c0.57,1.291,0.856,2.781,0.856,4.469v75.67C729.516,259.57,729.181,261.16,728.51,262.4 M806.439,171.611 c1.341,0.101,2.943,0.285,4.805,0.559c1.862,0.273,3.735,0.732,5.623,1.377c1.836,0.697,3.003,1.739,3.5,3.129 c0.496,1.389,0.745,2.955,0.745,4.691v76.267c0,1.936-0.335,3.526-1.006,4.766c-0.67,1.243-1.75,2.186-3.239,2.83 c-0.894,0.399-2.471,0.72-4.73,0.968c-2.259,0.249-3.984,0.423-5.175,0.522v5.288h45.357v-5.288 c-1.888-0.049-3.961-0.223-6.22-0.522c-2.259-0.298-3.835-0.619-4.729-0.968c-1.787-0.694-2.967-1.7-3.537-3.016 c-0.572-1.315-0.857-2.841-0.857-4.58v-32.027h11.842c5.064,0,9.855-0.644,14.374-1.935c4.518-1.291,8.664-3.326,12.439-6.108 c3.822-2.78,6.814-6.293,8.973-10.539c2.16-4.245,3.24-9.123,3.24-14.635c0-7.894-3.065-14.211-9.198-18.954 c-6.133-4.742-14.113-7.113-23.944-7.113h-48.263V171.611z M837.036,172.43h10.501c4.22,0,7.746,0.646,10.576,1.936 c2.83,1.292,5.113,3.104,6.852,5.438c1.638,2.185,2.792,4.742,3.463,7.671c0.67,2.93,1.005,5.809,1.005,8.639 c0,2.037-0.273,4.332-0.819,6.89c-0.547,2.559-1.664,5.027-3.352,7.411c-1.688,2.483-4.208,4.555-7.559,6.219 c-3.352,1.664-7.708,2.494-13.071,2.494h-7.596V172.43z M993.28,176.378c0.57-1.39,1.7-2.383,3.389-2.98 c0.993-0.346,2.495-0.718,4.506-1.117c2.01-0.396,3.71-0.62,5.102-0.67v-5.288h-43.868v5.288c1.389,0.101,3.041,0.399,4.953,0.894 c1.911,0.497,3.537,1.068,4.878,1.713c1.588,0.745,2.705,1.776,3.351,3.091c0.645,1.316,0.969,2.768,0.969,4.357v32.025h-49.678 v-32.77c0-1.638,0.286-3.153,0.857-4.543c0.57-1.39,1.7-2.383,3.389-2.98c0.993-0.346,2.495-0.718,4.505-1.117 c2.011-0.396,3.711-0.62,5.102-0.67v-5.288h-43.867v5.288c1.389,0.101,3.041,0.399,4.953,0.894c1.91,0.497,3.537,1.068,4.878,1.713 c1.589,0.745,2.706,1.776,3.351,3.091c0.645,1.316,0.968,2.768,0.968,4.357v76.266c0,1.936-0.347,3.512-1.043,4.73 c-0.695,1.217-1.787,2.121-3.276,2.717c-0.845,0.399-2.397,0.696-4.655,0.894c-2.26,0.2-3.985,0.348-5.176,0.447v5.288h43.867 v-5.288c-1.241-0.049-2.941-0.298-5.102-0.744c-2.16-0.447-3.662-0.895-4.505-1.341c-1.689-0.894-2.819-1.937-3.389-3.128 c-0.571-1.193-0.857-2.656-0.857-4.395V220.32h49.678v37.612c0,1.936-0.348,3.512-1.043,4.73c-0.696,1.217-1.788,2.121-3.277,2.717 c-0.845,0.399-2.397,0.696-4.655,0.894c-2.26,0.2-3.985,0.348-5.176,0.447v5.288h43.868v-5.288 c-1.242-0.049-2.942-0.298-5.102-0.744c-2.16-0.447-3.663-0.895-4.506-1.341c-1.689-0.894-2.819-1.937-3.389-3.128 c-0.571-1.193-0.857-2.656-0.857-4.395v-76.191C992.423,179.283,992.709,177.768,993.28,176.378 M1062.891,266.72 c-1.637-0.049-3.637-0.309-5.995-0.782c-2.358-0.471-4.058-0.906-5.101-1.303c-1.739-0.744-2.968-1.75-3.687-3.017 c-0.721-1.265-1.08-2.719-1.08-4.357v-76.49c0-1.638,0.322-3.126,0.969-4.468c0.643-1.34,1.91-2.308,3.798-2.905 c1.588-0.496,3.45-0.905,5.585-1.228c2.134-0.323,3.972-0.509,5.511-0.559v-5.288H1015.3v5.288c1.44,0.101,3.288,0.41,5.549,0.931 c2.259,0.521,4.133,1.08,5.622,1.676c2.036,0.795,3.326,1.776,3.873,2.942c0.546,1.167,0.821,2.619,0.821,4.358v76.562 c0,1.987-0.373,3.538-1.118,4.655c-0.745,1.118-1.936,1.999-3.576,2.644c-1.042,0.399-2.829,0.696-5.361,0.894 c-2.533,0.2-4.469,0.348-5.81,0.447v5.288h47.591V266.72z M1153.415,183.016c3.024-4.174,6.607-7.33,10.748-9.467 c4.14-2.136,8.617-3.204,13.428-3.204c4.215,0,7.958,0.957,11.233,2.868c3.271,1.911,6.098,4.555,8.479,7.932 c2.132,2.978,3.992,6.616,5.579,10.911c1.587,4.295,2.778,8.279,3.572,11.954h6.107l-0.67-37.687h-5.959l-3.051,5.065 c-3.82-2.333-7.837-4.145-12.054-5.437c-4.217-1.291-8.929-1.937-14.137-1.937c-6.995,0-13.567,1.342-19.719,4.026 c-6.152,2.683-11.484,6.484-15.998,11.402c-4.564,4.969-8.135,10.893-10.714,17.775c-2.581,6.883-3.87,14.546-3.87,22.992 c0,8.446,1.314,16.037,3.945,22.769c2.629,6.733,6.151,12.434,10.567,17.104c4.464,4.672,9.587,8.248,15.367,10.731 c5.779,2.485,11.82,3.727,18.12,3.727c9.725,0,18.108-2.247,25.154-6.74c7.045-4.492,12.7-11.978,16.966-22.455l-5.586-2.681 c-1.19,3.276-2.727,6.307-4.613,9.086c-1.885,2.781-4.067,5.264-6.546,7.447c-2.48,2.086-5.406,3.762-8.778,5.029 c-3.373,1.265-7.067,1.899-11.085,1.899c-5.358,0-10.206-1.192-14.546-3.578s-8.096-5.69-11.269-9.914 c-3.175-4.273-5.619-9.23-7.33-14.869c-1.709-5.64-2.566-11.839-2.566-18.597c0-7.653,0.818-14.584,2.455-20.796 C1148.28,192.16,1150.538,187.042,1153.415,183.016 M1239.645,262.178c-0.622,1.19-1.725,2.159-3.314,2.903 c-0.744,0.349-2.36,0.684-4.841,1.006c-2.484,0.324-4.469,0.534-5.958,0.633v5.288h87.735l2.011-31.132h-5.362 c-0.696,2.284-2.297,5.847-4.804,10.687c-2.508,4.842-4.904,8.454-7.188,10.837c-0.844,0.895-2.271,1.602-4.282,2.123 c-2.011,0.522-3.96,0.882-5.846,1.08c-1.838,0.199-4.097,0.297-6.778,0.297h-6.479c-4.122,0-7.299-0.135-9.534-0.408 c-2.234-0.272-3.998-0.879-5.288-1.822c-1.292-0.941-2.16-2.33-2.607-4.163c-0.446-1.834-0.67-4.338-0.67-7.51V220.32h11.917 c3.227,0,5.82,0.298,7.782,0.894c1.961,0.596,3.712,1.861,5.251,3.798c0.943,1.192,1.85,3.116,2.719,5.772 c0.868,2.657,1.402,5.177,1.601,7.56h5.586v-41.41h-5.586c-0.248,2.135-0.757,4.407-1.527,6.814 c-0.77,2.409-1.701,4.334-2.793,5.773c-1.341,1.688-2.892,2.893-4.654,3.613c-1.764,0.719-4.557,1.079-8.379,1.079h-11.917v-42.006 h16.608c2.731,0,5.164,0.05,7.299,0.149c2.135,0.1,3.973,0.248,5.512,0.447c2.979,0.397,6.119,2.718,9.421,6.963 c3.302,4.246,5.449,8.255,6.443,12.029h5.586v-25.472h-81.777v5.288c1.34,0.101,3.139,0.399,5.399,0.894 c2.259,0.497,4.059,1.068,5.4,1.713c1.737,0.795,2.879,1.825,3.426,3.091c0.545,1.266,0.819,2.718,0.819,4.357v75.968 C1240.576,259.472,1240.265,260.985,1239.645,262.178 M1335.266,177.718c1.341,1.242,2.407,3.005,3.202,5.288 c0.794,2.284,1.193,4.569,1.193,6.852v52.06c0,6.903-0.323,11.781-0.969,14.636c-0.646,2.856-1.838,4.978-3.574,6.368 c-0.796,0.695-2.782,1.477-5.959,2.346c-3.179,0.869-5.438,1.353-6.778,1.452v5.288h43.346v-5.288 c-1.142-0.049-3.5-0.545-7.075-1.49c-3.574-0.942-5.934-1.96-7.075-3.052c-1.59-1.391-2.769-3.725-3.537-7.002 c-0.771-3.277-1.156-7.97-1.156-14.075v-54.52l64.052,86.47h6.48v-77.383c0-5.411,0.309-9.881,0.931-13.406 c0.62-3.526,1.824-5.908,3.612-7.15c1.241-0.795,3.301-1.565,6.182-2.309c2.879-0.744,5.015-1.142,6.405-1.192v-5.288h-42.974 v5.288c1.639,0.101,4.033,0.596,7.187,1.49c3.153,0.894,5.424,1.812,6.815,2.754c1.489,1.092,2.631,3.291,3.426,6.59 c0.794,3.302,1.192,8.03,1.192,14.187v50.262l-59.404-80.571h-30.194v5.288c1.886,0.101,4.357,0.734,7.41,1.9 C1331.058,174.678,1333.478,176.08,1335.266,177.718 M1501.895,172.132c1.99,0,4.155,0.05,6.495,0.149 c2.339,0.1,4.28,0.249,5.822,0.448c1.642,0.249,3.347,1.228,5.114,2.941c1.766,1.713,3.395,3.713,4.889,5.996 c1.444,2.186,2.749,4.505,3.919,6.964c1.169,2.458,1.978,4.58,2.426,6.367h5.139v-28.674h-92.13v28.674h5.214 c0.447-1.639,1.24-3.711,2.384-6.219c1.141-2.507,2.457-4.878,3.946-7.112c1.49-2.234,3.116-4.233,4.879-5.996 c1.762-1.762,3.463-2.742,5.101-2.941c2.085-0.25,4.27-0.411,6.554-0.485c2.283-0.074,4.195-0.112,5.735-0.112h4.321v85.204 c0,2.037-0.386,3.662-1.156,4.878c-0.77,1.217-1.972,2.149-3.612,2.794c-1.093,0.446-3.065,0.819-5.921,1.117 c-2.855,0.297-4.978,0.496-6.367,0.595v5.288h49.9v-5.288c-1.589-0.049-3.811-0.372-6.666-0.968 c-2.855-0.596-4.729-1.067-5.623-1.415c-1.738-0.744-2.955-1.799-3.649-3.165c-0.696-1.365-1.043-2.867-1.043-4.507v-84.533 H1501.895z M1746.41,240.876h-5.363c-0.695,2.284-2.296,5.847-4.803,10.687c-2.508,4.842-4.905,8.454-7.188,10.837 c-0.844,0.895-2.271,1.602-4.282,2.123c-2.011,0.522-3.96,0.882-5.847,1.08c-1.838,0.199-4.096,0.297-6.777,0.297h-6.479 c-4.123,0-7.299-0.135-9.534-0.408c-2.234-0.272-3.998-0.879-5.288-1.822c-1.292-0.941-2.16-2.33-2.607-4.163 c-0.446-1.834-0.67-4.338-0.67-7.51V220.32h11.917c3.226,0,5.82,0.298,7.782,0.894c1.961,0.596,3.712,1.861,5.251,3.798 c0.942,1.192,1.85,3.116,2.719,5.772c0.868,2.657,1.402,5.177,1.6,7.56h5.586v-41.41h-5.586c-0.248,2.135-0.756,4.407-1.526,6.814 c-0.77,2.409-1.701,4.334-2.793,5.773c-1.341,1.688-2.893,2.893-4.654,3.613c-1.764,0.719-4.557,1.079-8.379,1.079h-11.917v-42.006 h16.608c2.731,0,5.163,0.05,7.299,0.149c2.135,0.1,3.973,0.248,5.512,0.447c2.979,0.397,6.119,2.718,9.422,6.963 c3.3,4.246,5.448,8.255,6.442,12.029h5.586v-25.472h-81.777v5.288c1.34,0.101,3.139,0.399,5.399,0.894 c2.259,0.497,4.059,1.068,5.399,1.713c1.738,0.795,2.879,1.825,3.427,3.091c0.545,1.266,0.819,2.718,0.819,4.357v75.968 c0,1.838-0.311,3.351-0.931,4.544c-0.622,1.19-1.726,2.159-3.315,2.903c-0.744,0.349-2.358,0.684-4.84,1.006 c-2.484,0.324-4.469,0.534-5.958,0.633v5.288h87.735L1746.41,240.876z M1589.404,266.72c-1.54-0.049-3.427-0.223-5.661-0.522 c-2.235-0.298-3.798-0.619-4.692-0.968c-1.788-0.694-2.955-1.7-3.501-3.016c-0.546-1.315-0.819-2.841-0.819-4.58v-33.516h10.825 c5.951,7.647,11.47,15.07,16.554,22.269c5.085,7.201,10.776,15.742,17.077,25.621h28.459v-5.288 c-1.292-0.049-2.905-0.247-4.842-0.595c-1.935-0.347-3.55-0.845-4.841-1.49c-1.739-0.894-3.489-2.048-5.251-3.463 c-1.762-1.415-3.736-3.613-5.92-6.592c-5.016-6.752-9.248-12.486-12.699-17.204c-3.452-4.717-7.783-10.526-12.996-17.429 c3.773-1.092,7.224-2.42,10.352-3.984c3.129-1.564,5.809-3.412,8.044-5.548c2.431-2.283,4.269-4.99,5.511-8.119 c1.241-3.128,1.862-6.728,1.862-10.799c0-4.518-0.919-8.379-2.756-11.581c-1.837-3.203-4.295-5.797-7.373-7.784 c-3.178-2.035-6.729-3.512-10.65-4.431c-3.923-0.919-8.119-1.378-12.587-1.378h-48.784v5.288c1.39,0.101,3.079,0.334,5.065,0.707 c1.985,0.373,3.599,0.783,4.842,1.229c1.836,0.697,3.003,1.714,3.5,3.054c0.495,1.34,0.744,2.88,0.744,4.618v76.415 c0,1.936-0.334,3.526-1.005,4.766c-0.671,1.243-1.75,2.186-3.239,2.83c-0.895,0.399-2.471,0.72-4.73,0.968 c-2.261,0.249-3.985,0.423-5.177,0.522v5.288h44.688V266.72z M1574.731,172.43h12.661c6.703,0,11.892,1.872,15.567,5.614 c3.673,3.742,5.51,8.811,5.51,15.206c0,7.535-2.284,13.496-6.851,17.883c-4.569,4.388-10.278,6.581-17.13,6.581h-9.757V172.43z M1746.41,329.711H507.997v8.566H1746.41V329.711z M559.007,90.92h-3.047c-0.396,1.298-1.306,3.322-2.731,6.074 c-1.425,2.751-2.787,4.805-4.085,6.16c-0.48,0.508-1.291,0.91-2.434,1.205c-1.143,0.297-2.251,0.503-3.324,0.616 c-1.044,0.112-2.328,0.169-3.851,0.169h-3.683c-2.344,0-4.149-0.079-5.419-0.233c-1.27-0.155-2.272-0.5-3.006-1.035 c-0.734-0.536-1.227-1.324-1.481-2.368c-0.254-1.042-0.381-2.465-0.381-4.268V79.235h6.773c1.835,0,3.309,0.169,4.423,0.508 c1.116,0.339,2.11,1.059,2.985,2.159c0.536,0.678,1.052,1.771,1.546,3.282c0.493,1.509,0.797,2.941,0.91,4.295h3.175V65.942h-3.175 c-0.142,1.214-0.431,2.505-0.868,3.874c-0.438,1.37-0.967,2.462-1.588,3.281c-0.762,0.961-1.644,1.644-2.646,2.053 c-1.002,0.41-2.59,0.615-4.762,0.615h-6.773V51.888h9.441c1.55,0,2.933,0.028,4.147,0.085c1.214,0.057,2.258,0.141,3.133,0.254 c1.693,0.226,3.478,1.545,5.355,3.958c1.877,2.413,3.097,4.693,3.662,6.837h3.175V48.544h-46.481v3.005 c0.761,0.057,1.784,0.226,3.068,0.509c1.284,0.282,2.308,0.607,3.069,0.973c0.988,0.452,1.637,1.037,1.948,1.757 c0.31,0.72,0.466,1.545,0.466,2.477v43.179c0,1.045-0.177,1.906-0.53,2.582c-0.352,0.678-0.98,1.228-1.884,1.652 c-0.422,0.198-1.34,0.387-2.751,0.572c-1.412,0.184-2.54,0.303-3.386,0.358v3.006h49.868L559.007,90.92z M568.15,52.946 c0.987,0.566,1.644,1.18,1.969,1.842c0.323,0.664,0.486,1.489,0.486,2.477v35.517c0,2.258,0.48,4.423,1.44,6.498 c0.959,2.074,2.384,3.916,4.275,5.526c1.919,1.607,4.29,2.884,7.112,3.831c2.822,0.944,6.039,1.417,9.652,1.417 c2.257,0,4.621-0.332,7.09-0.994c2.47-0.664,4.82-1.758,7.049-3.282c2.258-1.58,4.078-3.598,5.461-6.053 c1.383-2.455,2.074-5.348,2.074-8.678v-26.12c0-2.935,0.184-5.419,0.551-7.451c0.366-2.032,1.03-3.372,1.989-4.022 c0.96-0.619,2.202-1.086,3.726-1.396c1.524-0.311,2.681-0.481,3.472-0.509v-3.005h-24.554v3.005 c0.903,0.057,2.208,0.283,3.916,0.678c1.707,0.394,3.055,0.944,4.043,1.649c0.874,0.62,1.538,1.925,1.989,3.912 c0.451,1.989,0.678,4.548,0.678,7.678v24.618c0,1.692-0.24,3.371-0.72,5.035c-0.48,1.663-1.299,3.256-2.456,4.778 c-1.214,1.609-2.872,2.906-4.973,3.893c-2.103,0.986-4.706,1.481-7.811,1.481c-3.302,0-5.898-0.495-7.789-1.481 c-1.892-0.987-3.387-2.256-4.488-3.807c-1.044-1.523-1.742-3.165-2.095-4.927c-0.354-1.763-0.529-3.449-0.529-5.056V56.837 c0-0.931,0.162-1.791,0.486-2.581c0.325-0.788,0.967-1.352,1.927-1.691c0.564-0.198,1.446-0.409,2.645-0.634 c1.2-0.226,2.195-0.354,2.985-0.382v-3.005h-25.019v3.005c0.705,0.057,1.609,0.206,2.71,0.444 C566.542,52.234,567.444,52.552,568.15,52.946 M654.913,105.608c-0.875-0.027-1.948-0.126-3.218-0.295 c-1.27-0.169-2.159-0.353-2.667-0.551c-1.017-0.395-1.68-0.966-1.989-1.714c-0.312-0.747-0.466-1.616-0.466-2.604V81.395h6.152 c3.383,4.345,6.52,8.565,9.41,12.657c2.889,4.093,6.125,8.947,9.706,14.562h16.176v-3.006c-0.734-0.027-1.651-0.14-2.752-0.337 c-1.1-0.198-2.018-0.481-2.752-0.848c-0.988-0.508-1.982-1.163-2.984-1.968c-1.002-0.804-2.123-2.053-3.365-3.746 c-2.851-3.838-5.257-7.098-7.218-9.779c-1.962-2.681-4.424-5.983-7.387-9.907c2.145-0.62,4.106-1.376,5.884-2.264 c1.778-0.889,3.302-1.94,4.572-3.154c1.382-1.297,2.427-2.836,3.133-4.614c0.705-1.779,1.058-3.824,1.058-6.138 c0-2.569-0.523-4.763-1.567-6.582c-1.044-1.822-2.441-3.295-4.19-4.425c-1.807-1.158-3.825-1.997-6.054-2.519 c-2.23-0.522-4.614-0.783-7.154-0.783h-27.729v3.005c0.79,0.057,1.75,0.191,2.879,0.402c1.129,0.212,2.046,0.445,2.751,0.699 c1.044,0.396,1.707,0.973,1.99,1.736c0.282,0.761,0.423,1.636,0.423,2.624v43.434c0,1.101-0.19,2.004-0.571,2.71 c-0.381,0.705-0.994,1.242-1.842,1.608c-0.508,0.226-1.403,0.41-2.687,0.551s-2.265,0.24-2.943,0.295v3.006h25.401V105.608z M646.573,52.016h7.196c3.811,0,6.759,1.063,8.848,3.19c2.088,2.127,3.133,5.009,3.133,8.644c0,4.282-1.299,7.671-3.895,10.165 c-2.598,2.493-5.842,3.738-9.736,3.738h-5.546V52.016z M698.696,101.164c2.54,2.795,5.58,4.975,9.122,6.54 c3.542,1.567,7.401,2.35,11.579,2.35c3.922,0,7.619-0.735,11.091-2.2c3.472-1.468,6.519-3.557,9.144-6.266 c2.709-2.738,4.826-6.054,6.349-9.949c1.525-3.895,2.286-8.226,2.286-12.995c0-4.743-0.747-9.067-2.243-12.976 c-1.496-3.908-3.57-7.246-6.223-10.013c-2.568-2.709-5.616-4.81-9.144-6.307c-3.528-1.495-7.281-2.244-11.26-2.244 c-3.839,0-7.515,0.735-11.028,2.202c-3.514,1.468-6.598,3.585-9.25,6.349c-2.682,2.795-4.783,6.105-6.308,9.928 c-1.523,3.825-2.286,8.178-2.286,13.061c0,4.459,0.727,8.642,2.181,12.55C694.159,95.104,696.156,98.427,698.696,101.164 M701.807,68.145c0.692-3.331,1.742-6.238,3.154-8.721c1.496-2.597,3.429-4.671,5.799-6.224c2.372-1.551,5.25-2.328,8.637-2.328 c3.019,0,5.7,0.67,8.043,2.012c2.342,1.34,4.289,3.21,5.842,5.608c1.552,2.428,2.73,5.363,3.535,8.806 c0.804,3.443,1.206,7.224,1.206,11.346c0,4.006-0.359,7.633-1.079,10.878c-0.72,3.247-1.87,6.154-3.451,8.721 c-1.524,2.54-3.499,4.516-5.926,5.927c-2.428,1.411-5.151,2.116-8.17,2.116c-3.218,0-5.984-0.698-8.298-2.096 c-2.314-1.396-4.233-3.336-5.758-5.82c-1.58-2.54-2.737-5.447-3.47-8.721c-0.735-3.273-1.102-6.942-1.102-11.005 C700.769,74.975,701.115,71.475,701.807,68.145 M756.385,52.65c1.044,0.396,1.707,0.988,1.99,1.778 c0.282,0.791,0.423,1.679,0.423,2.668v43.348c0,1.101-0.19,2.004-0.571,2.71c-0.381,0.705-0.995,1.242-1.842,1.608 c-0.507,0.226-1.404,0.41-2.688,0.551s-2.265,0.24-2.941,0.295v3.006h25.78v-3.006c-1.072-0.027-2.251-0.126-3.534-0.295 c-1.286-0.169-2.181-0.353-2.689-0.551c-1.015-0.395-1.686-0.966-2.011-1.714c-0.324-0.747-0.486-1.616-0.486-2.604V82.241h6.731 c2.878,0,5.601-0.367,8.169-1.101c2.569-0.733,4.925-1.89,7.071-3.471c2.173-1.579,3.873-3.577,5.1-5.99 c1.229-2.413,1.842-5.186,1.842-8.319c0-4.487-1.743-8.078-5.228-10.773c-3.486-2.694-8.022-4.043-13.61-4.043h-27.432v3.005 c0.761,0.057,1.673,0.163,2.73,0.318C754.248,52.022,755.313,52.283,756.385,52.65 M767.816,52.016h5.969 c2.398,0,4.402,0.366,6.012,1.099c1.607,0.736,2.905,1.765,3.893,3.091c0.932,1.242,1.588,2.695,1.969,4.36 c0.381,1.666,0.571,3.303,0.571,4.911c0,1.158-0.155,2.462-0.465,3.917c-0.311,1.453-0.946,2.856-1.905,4.211 c-0.96,1.412-2.393,2.59-4.297,3.535c-1.905,0.946-4.382,1.418-7.43,1.418h-4.317V52.016z M852.757,90.92h-3.047 c-0.396,1.298-1.306,3.322-2.731,6.074c-1.425,2.751-2.787,4.805-4.085,6.16c-0.48,0.508-1.291,0.91-2.434,1.205 c-1.143,0.297-2.251,0.503-3.324,0.616c-1.044,0.112-2.328,0.169-3.851,0.169h-3.684c-2.343,0-4.148-0.079-5.418-0.233 c-1.27-0.155-2.272-0.5-3.007-1.035c-0.733-0.536-1.226-1.324-1.481-2.368c-0.254-1.042-0.38-2.465-0.38-4.268V79.235h6.773 c1.834,0,3.308,0.169,4.423,0.508c1.116,0.339,2.11,1.059,2.985,2.159c0.536,0.678,1.052,1.771,1.546,3.282 c0.493,1.509,0.797,2.941,0.909,4.295h3.176V65.942h-3.176c-0.141,1.214-0.43,2.505-0.867,3.874 c-0.438,1.37-0.967,2.462-1.588,3.281c-0.762,0.961-1.644,1.644-2.646,2.053c-1.002,0.41-2.59,0.615-4.762,0.615h-6.773V51.888 h9.44c1.551,0,2.934,0.028,4.148,0.085c1.214,0.057,2.258,0.141,3.133,0.254c1.693,0.226,3.478,1.545,5.355,3.958 c1.877,2.413,3.097,4.693,3.661,6.837h3.176V48.544h-46.482v3.005c0.762,0.057,1.785,0.226,3.069,0.509 c1.284,0.282,2.308,0.607,3.069,0.973c0.988,0.452,1.637,1.037,1.948,1.757c0.31,0.72,0.466,1.545,0.466,2.477v43.179 c0,1.045-0.177,1.906-0.53,2.582c-0.352,0.678-0.98,1.228-1.884,1.652c-0.423,0.198-1.34,0.387-2.751,0.572 c-1.412,0.184-2.541,0.303-3.387,0.358v3.006h49.869L852.757,90.92z M879.349,105.608c-2.229-0.112-4.234-0.479-6.011-1.099 c-1.779-0.621-2.667-1.496-2.667-2.626c0-0.48,0.069-1.1,0.211-1.862c0.141-0.762,0.395-1.75,0.763-2.963 c0.396-1.242,0.841-2.596,1.336-4.065c0.494-1.467,1.138-3.188,1.929-5.164h21.086l4.975,13.462 c0.113,0.282,0.198,0.607,0.254,0.975c0.056,0.366,0.084,0.676,0.084,0.93c0,0.621-0.726,1.143-2.179,1.566 c-1.454,0.424-3.281,0.706-5.482,0.846v3.006h24.969v-3.006c-0.705-0.027-1.58-0.174-2.624-0.444 c-1.045-0.268-1.892-0.599-2.54-0.994c-0.96-0.649-1.708-1.313-2.244-1.99c-0.536-0.677-1.016-1.566-1.439-2.667l-20.024-51.816 h-3.387c-2.851,7.338-6.096,15.705-9.736,25.104c-3.641,9.398-6.971,17.864-9.991,25.4c-0.593,1.467-1.2,2.617-1.82,3.45 c-0.621,0.832-1.496,1.63-2.625,2.392c-0.706,0.452-1.608,0.811-2.71,1.079c-1.1,0.269-2.016,0.431-2.751,0.486v3.006h22.623 V105.608z M885.35,60.75l9.1,23.312h-18.068L885.35,60.75z M930.925,55.021c0.762,0.706,1.369,1.708,1.821,3.005 c0.451,1.299,0.677,2.597,0.677,3.895v29.591c0,3.923-0.184,6.696-0.55,8.319c-0.367,1.623-1.044,2.829-2.033,3.619 c-0.451,0.396-1.581,0.84-3.386,1.333c-1.807,0.495-3.09,0.77-3.852,0.825v3.006h24.638v-3.006c-0.65-0.027-1.99-0.309-4.023-0.846 c-2.031-0.535-3.372-1.114-4.021-1.736c-0.903-0.79-1.573-2.116-2.01-3.978c-0.438-1.863-0.656-4.53-0.656-8.001V60.059 l36.406,49.148h3.684V65.224c0-3.077,0.175-5.618,0.528-7.62c0.353-2.004,1.037-3.359,2.054-4.065 c0.705-0.451,1.876-0.889,3.512-1.312c1.637-0.423,2.851-0.65,3.642-0.678v-3.005h-24.427v3.005 c0.932,0.057,2.293,0.339,4.085,0.847c1.792,0.508,3.083,1.03,3.874,1.566c0.847,0.62,1.495,1.869,1.948,3.746 c0.451,1.876,0.676,4.564,0.676,8.063v28.57l-33.764-45.797h-17.162v3.005c1.072,0.057,2.476,0.417,4.212,1.08 C928.534,53.293,929.91,54.089,930.925,55.021 M1033.025,101.836c2.538,2.655,5.45,4.688,8.735,6.101 c3.285,1.411,6.718,2.117,10.3,2.117c5.527,0,10.292-1.277,14.296-3.831c4.005-2.554,7.22-6.808,9.645-12.763l-3.175-1.524 c-0.677,1.862-1.551,3.585-2.622,5.164c-1.073,1.581-2.312,2.992-3.721,4.233c-1.41,1.186-3.073,2.138-4.99,2.857 c-1.917,0.721-4.017,1.081-6.301,1.081c-3.045,0-5.801-0.678-8.268-2.034c-2.466-1.356-4.601-3.233-6.405-5.634 c-1.805-2.429-3.193-5.247-4.165-8.453c-0.974-3.205-1.459-6.729-1.459-10.571c0-4.349,0.465-8.288,1.395-11.819 c0.929-3.53,2.214-6.44,3.848-8.728c1.72-2.372,3.756-4.167,6.11-5.381c2.353-1.214,4.898-1.821,7.632-1.821 c2.396,0,4.524,0.543,6.384,1.63c1.861,1.086,3.467,2.59,4.821,4.508c1.211,1.693,2.268,3.761,3.17,6.202 c0.903,2.441,1.58,4.706,2.031,6.795h3.47l-0.38-21.421h-3.387l-1.735,2.879c-2.17-1.326-4.455-2.357-6.85-3.091 c-2.398-0.733-5.076-1.101-8.036-1.101c-3.976,0-7.711,0.763-11.208,2.289c-3.497,1.525-6.528,3.685-9.093,6.481 c-2.595,2.824-4.624,6.191-6.091,10.103c-1.466,3.911-2.199,8.268-2.199,13.069c0,4.801,0.747,9.114,2.242,12.941 C1028.513,95.941,1030.515,99.182,1033.025,101.836 M1086.436,52.946c0.988,0.566,1.644,1.18,1.969,1.842 c0.324,0.664,0.487,1.489,0.487,2.477v35.517c0,2.258,0.479,4.423,1.439,6.498c0.959,2.074,2.384,3.916,4.276,5.526 c1.919,1.607,4.289,2.884,7.111,3.831c2.823,0.944,6.039,1.417,9.653,1.417c2.258,0,4.621-0.332,7.091-0.994 c2.468-0.664,4.818-1.758,7.047-3.282c2.258-1.58,4.079-3.598,5.462-6.053c1.382-2.455,2.075-5.348,2.075-8.678v-26.12 c0-2.935,0.182-5.419,0.549-7.451c0.367-2.032,1.031-3.372,1.991-4.022c0.959-0.619,2.201-1.086,3.724-1.396 c1.525-0.311,2.682-0.481,3.472-0.509v-3.005h-24.553v3.005c0.902,0.057,2.207,0.283,3.915,0.678 c1.707,0.394,3.055,0.944,4.043,1.649c0.874,0.62,1.538,1.925,1.99,3.912c0.452,1.989,0.677,4.548,0.677,7.678v24.618 c0,1.692-0.24,3.371-0.72,5.035c-0.48,1.663-1.298,3.256-2.455,4.778c-1.214,1.609-2.872,2.906-4.974,3.893 c-2.103,0.986-4.706,1.481-7.811,1.481c-3.302,0-5.898-0.495-7.789-1.481c-1.892-0.987-3.387-2.256-4.487-3.807 c-1.045-1.523-1.743-3.165-2.096-4.927c-0.353-1.763-0.528-3.449-0.528-5.056V56.837c0-0.931,0.162-1.791,0.486-2.581 c0.324-0.788,0.967-1.352,1.926-1.691c0.564-0.198,1.446-0.409,2.646-0.634c1.2-0.226,2.194-0.354,2.985-0.382v-3.005h-25.02v3.005 c0.706,0.057,1.61,0.206,2.71,0.444C1084.828,52.234,1085.731,52.552,1086.436,52.946 M1196.016,90.75h-3.005 c-0.592,1.637-1.658,3.774-3.197,6.413c-1.538,2.64-2.885,4.608-4.042,5.905c-0.395,0.453-1.01,0.827-1.842,1.122 c-0.833,0.297-1.743,0.53-2.73,0.7c-1.016,0.169-2.089,0.282-3.218,0.338c-1.129,0.057-2.216,0.085-3.259,0.085 c-2.314,0-4.114-0.079-5.398-0.233c-1.284-0.154-2.25-0.487-2.9-0.995c-0.677-0.564-1.108-1.36-1.291-2.392 c-0.183-1.029-0.275-2.476-0.275-4.339V57.01c0-0.931,0.176-1.806,0.529-2.624c0.353-0.819,1.009-1.397,1.969-1.736 c0.564-0.197,1.475-0.423,2.731-0.677c1.254-0.254,2.278-0.396,3.069-0.424v-3.005h-25.358v3.005 c0.762,0.057,1.728,0.248,2.9,0.572c1.171,0.325,2.081,0.655,2.73,0.994c0.959,0.452,1.602,1.045,1.926,1.779 s0.487,1.581,0.487,2.54v43.01c0,1.101-0.19,2.004-0.571,2.71c-0.382,0.705-0.995,1.242-1.842,1.608 c-0.508,0.226-1.404,0.41-2.688,0.551c-1.284,0.141-2.265,0.24-2.942,0.295v3.006h46.948L1196.016,90.75z M1204.032,61.307 c0.648-1.424,1.397-2.773,2.244-4.042c0.847-1.271,1.77-2.407,2.772-3.409c1.002-1.001,1.968-1.558,2.9-1.671 c1.185-0.141,2.427-0.234,3.725-0.276c1.298-0.042,2.385-0.063,3.26-0.063h2.455v48.429c0,1.157-0.218,2.082-0.656,2.773 c-0.437,0.692-1.121,1.221-2.053,1.588c-0.621,0.254-1.743,0.465-3.366,0.635c-1.623,0.168-2.829,0.282-3.619,0.337v3.006h28.363 v-3.006c-0.903-0.027-2.166-0.211-3.788-0.549c-1.624-0.339-2.688-0.607-3.196-0.805c-0.988-0.423-1.68-1.022-2.074-1.799 c-0.397-0.775-0.593-1.63-0.593-2.56V51.846h2.46c1.131,0,2.362,0.028,3.691,0.085c1.33,0.057,2.433,0.141,3.31,0.254 c0.933,0.141,1.902,0.699,2.906,1.671c1.005,0.974,1.931,2.111,2.779,3.409c0.821,1.242,1.563,2.56,2.228,3.958 c0.665,1.397,1.124,2.602,1.379,3.619h2.922V48.544h-52.368v16.298h2.964C1202.931,63.911,1203.382,62.732,1204.032,61.307 M1262.516,52.946c0.988,0.566,1.644,1.18,1.968,1.842c0.324,0.664,0.487,1.489,0.487,2.477v35.517c0,2.258,0.48,4.423,1.439,6.498 c0.96,2.074,2.386,3.916,4.276,5.526c1.919,1.607,4.29,2.884,7.111,3.831c2.823,0.944,6.041,1.417,9.653,1.417 c2.258,0,4.621-0.332,7.091-0.994c2.469-0.664,4.818-1.758,7.048-3.282c2.257-1.58,4.079-3.598,5.461-6.053 c1.382-2.455,2.075-5.348,2.075-8.678v-26.12c0-2.935,0.182-5.419,0.55-7.451c0.367-2.032,1.03-3.372,1.99-4.022 c0.959-0.619,2.201-1.086,3.725-1.396c1.524-0.311,2.681-0.481,3.472-0.509v-3.005h-24.554v3.005 c0.904,0.057,2.208,0.283,3.916,0.678c1.707,0.394,3.054,0.944,4.042,1.649c0.875,0.62,1.538,1.925,1.99,3.912 c0.452,1.989,0.678,4.548,0.678,7.678v24.618c0,1.692-0.241,3.371-0.721,5.035c-0.479,1.663-1.297,3.256-2.455,4.778 c-1.213,1.609-2.872,2.906-4.973,3.893c-2.104,0.986-4.706,1.481-7.811,1.481c-3.302,0-5.899-0.495-7.79-1.481 c-1.89-0.987-3.387-2.256-4.487-3.807c-1.044-1.523-1.742-3.165-2.095-4.927c-0.353-1.763-0.529-3.449-0.529-5.056V56.837 c0-0.931,0.162-1.791,0.486-2.581c0.324-0.788,0.967-1.352,1.927-1.691c0.564-0.198,1.446-0.409,2.645-0.634 c1.2-0.226,2.195-0.354,2.985-0.382v-3.005h-25.019v3.005c0.705,0.057,1.609,0.206,2.709,0.444 C1260.907,52.234,1261.81,52.552,1262.516,52.946 M1349.279,105.608c-0.876-0.027-1.948-0.126-3.218-0.295 c-1.27-0.169-2.159-0.353-2.667-0.551c-1.016-0.395-1.68-0.966-1.99-1.714c-0.311-0.747-0.465-1.616-0.465-2.604V81.395h6.152 c3.383,4.345,6.52,8.565,9.41,12.657c2.889,4.093,6.125,8.947,9.706,14.562h16.175v-3.006c-0.733-0.027-1.65-0.14-2.751-0.337 c-1.1-0.198-2.018-0.481-2.752-0.848c-0.988-0.508-1.982-1.163-2.984-1.968c-1.002-0.804-2.124-2.053-3.365-3.746 c-2.851-3.838-5.257-7.098-7.218-9.779c-1.962-2.681-4.424-5.983-7.388-9.907c2.145-0.62,4.107-1.376,5.885-2.264 c1.778-0.889,3.302-1.94,4.572-3.154c1.382-1.297,2.427-2.836,3.132-4.614c0.706-1.779,1.059-3.824,1.059-6.138 c0-2.569-0.523-4.763-1.567-6.582c-1.043-1.822-2.441-3.295-4.191-4.425c-1.806-1.158-3.824-1.997-6.054-2.519 c-2.229-0.522-4.613-0.783-7.153-0.783h-27.728v3.005c0.79,0.057,1.75,0.191,2.878,0.402c1.128,0.212,2.046,0.445,2.751,0.699 c1.044,0.396,1.707,0.973,1.99,1.736c0.282,0.761,0.423,1.636,0.423,2.624v43.434c0,1.101-0.19,2.004-0.571,2.71 c-0.381,0.705-0.995,1.242-1.842,1.608c-0.507,0.226-1.404,0.41-2.688,0.551c-1.284,0.141-2.264,0.24-2.941,0.295v3.006h25.4 V105.608z M1340.939,52.016h7.196c3.81,0,6.759,1.063,8.848,3.19c2.088,2.127,3.133,5.009,3.133,8.644 c0,4.282-1.299,7.671-3.896,10.165c-2.596,2.493-5.841,3.738-9.736,3.738h-5.545V52.016z M1410.023,105.608 c-2.23-0.112-4.234-0.479-6.013-1.099c-1.777-0.621-2.666-1.496-2.666-2.626c0-0.48,0.07-1.1,0.211-1.862 c0.142-0.762,0.396-1.75,0.763-2.963c0.395-1.242,0.842-2.596,1.337-4.065c0.494-1.467,1.137-3.188,1.928-5.164h21.087 l4.975,13.462c0.112,0.282,0.196,0.607,0.253,0.975c0.057,0.366,0.085,0.676,0.085,0.93c0,0.621-0.728,1.143-2.181,1.566 c-1.452,0.424-3.279,0.706-5.48,0.846v3.006h24.969v-3.006c-0.706-0.027-1.581-0.174-2.625-0.444 c-1.044-0.268-1.891-0.599-2.54-0.994c-0.959-0.649-1.707-1.313-2.244-1.99c-0.536-0.677-1.015-1.566-1.439-2.667l-20.023-51.816 h-3.387c-2.852,7.338-6.096,15.705-9.737,25.104c-3.64,9.398-6.971,17.864-9.991,25.4c-0.593,1.467-1.199,2.617-1.82,3.45 c-0.621,0.832-1.496,1.63-2.624,2.392c-0.706,0.452-1.609,0.811-2.71,1.079c-1.101,0.269-2.017,0.431-2.751,0.486v3.006h22.623 V105.608z M1416.024,60.75l9.1,23.312h-18.069L1416.024,60.75z M1502.525,90.75h-3.005c-0.593,1.637-1.658,3.774-3.197,6.413 c-1.538,2.64-2.885,4.608-4.042,5.905c-0.396,0.453-1.01,0.827-1.842,1.122c-0.833,0.297-1.743,0.53-2.73,0.7 c-1.016,0.169-2.089,0.282-3.218,0.338c-1.129,0.057-2.216,0.085-3.259,0.085c-2.314,0-4.114-0.079-5.398-0.233 c-1.285-0.154-2.25-0.487-2.9-0.995c-0.678-0.564-1.108-1.36-1.291-2.392c-0.183-1.029-0.275-2.476-0.275-4.339V57.01 c0-0.931,0.176-1.806,0.529-2.624c0.353-0.819,1.009-1.397,1.969-1.736c0.564-0.197,1.474-0.423,2.73-0.677 c1.255-0.254,2.279-0.396,3.07-0.424v-3.005h-25.358v3.005c0.762,0.057,1.728,0.248,2.9,0.572c1.171,0.325,2.081,0.655,2.73,0.994 c0.959,0.452,1.602,1.045,1.926,1.779c0.324,0.734,0.487,1.581,0.487,2.54v43.01c0,1.101-0.19,2.004-0.571,2.71 c-0.382,0.705-0.995,1.242-1.842,1.608c-0.508,0.226-1.404,0.41-2.688,0.551c-1.285,0.141-2.265,0.24-2.942,0.295v3.006h46.947 L1502.525,90.75z"></path> </g> </svg> 